<svg width="125" height="103" viewBox="0 0 125 103" fill="none" xmlns="http://www.w3.org/2000/svg">
<path d="M2.20024 97.3412C2.03726 97.3412 1.90391 97.2893 1.80019 97.1856C1.69648 97.0819 1.64462 96.9486 1.64462 96.7856V82.3396C1.64462 82.1766 1.69648 82.0432 1.80019 81.9395C1.90391 81.8358 2.03726 81.784 2.20024 81.784H4.55605C4.71903 81.784 4.85237 81.8358 4.95609 81.9395C5.0598 82.0432 5.11166 82.1766 5.11166 82.3396V87.4068L9.68993 82.2062C9.7492 82.1173 9.8455 82.0284 9.97885 81.9395C10.127 81.8358 10.3196 81.784 10.5567 81.784H13.2459C13.3792 81.784 13.4903 81.8358 13.5792 81.9395C13.6681 82.0284 13.7126 82.1321 13.7126 82.2507C13.7126 82.3544 13.683 82.4433 13.6237 82.5174L7.91196 89.2292L14.046 96.6078C14.1052 96.667 14.1349 96.7559 14.1349 96.8745C14.1349 96.993 14.0904 97.1041 14.0015 97.2078C13.9126 97.2967 13.8015 97.3412 13.6681 97.3412H10.8901C10.6234 97.3412 10.4233 97.2819 10.29 97.1634C10.1566 97.0449 10.0677 96.9634 10.0233 96.9189L5.11166 91.2294V96.7856C5.11166 96.9486 5.0598 97.0819 4.95609 97.1856C4.85237 97.2893 4.71903 97.3412 4.55605 97.3412H2.20024ZM20.7837 97.5634C19.5539 97.5634 18.5242 97.3634 17.6944 96.9634C16.8647 96.5485 16.2276 95.9633 15.7831 95.2076C15.3534 94.452 15.1164 93.5704 15.0719 92.5629C15.0571 92.2666 15.0497 91.9332 15.0497 91.5628C15.0497 91.1776 15.0571 90.8442 15.0719 90.5627C15.1164 89.5403 15.3683 88.6588 15.8276 87.918C16.2869 87.1623 16.9314 86.5845 17.7611 86.1844C18.5908 85.7696 19.5983 85.5621 20.7837 85.5621C21.9542 85.5621 22.9543 85.7696 23.784 86.1844C24.6137 86.5845 25.2582 87.1623 25.7175 87.918C26.1768 88.6588 26.4287 89.5403 26.4732 90.5627C26.5028 90.8442 26.5176 91.1776 26.5176 91.5628C26.5176 91.9332 26.5028 92.2666 26.4732 92.5629C26.4287 93.5704 26.1842 94.452 25.7397 95.2076C25.3101 95.9633 24.6804 96.5485 23.8507 96.9634C23.0209 97.3634 21.9986 97.5634 20.7837 97.5634ZM20.7837 95.1187C21.5097 95.1187 22.0579 94.8965 22.4283 94.452C22.7987 93.9927 22.9987 93.3259 23.0283 92.4518C23.0432 92.2295 23.0506 91.9332 23.0506 91.5628C23.0506 91.1924 23.0432 90.896 23.0283 90.6738C22.9987 89.8145 22.7987 89.1551 22.4283 88.6958C22.0579 88.2365 21.5097 88.0069 20.7837 88.0069C20.0577 88.0069 19.502 88.2365 19.1168 88.6958C18.7464 89.1551 18.5464 89.8145 18.5167 90.6738C18.5019 90.896 18.4945 91.1924 18.4945 91.5628C18.4945 91.9332 18.5019 92.2295 18.5167 92.4518C18.5464 93.3259 18.7464 93.9927 19.1168 94.452C19.502 94.8965 20.0577 95.1187 20.7837 95.1187ZM34.6204 102.231C33.524 102.231 32.6128 102.082 31.8868 101.786C31.1608 101.505 30.5829 101.156 30.1532 100.742C29.7384 100.342 29.4421 99.9415 29.2643 99.5414C29.0865 99.1414 28.9902 98.8302 28.9753 98.608C28.9605 98.445 29.0124 98.3117 29.1309 98.2079C29.2494 98.1042 29.3828 98.0524 29.5309 98.0524H31.909C32.0423 98.0524 32.1535 98.082 32.2424 98.1413C32.3461 98.2154 32.4276 98.3339 32.4868 98.4969C32.5609 98.6747 32.6646 98.8599 32.798 99.0525C32.9313 99.2599 33.1313 99.4303 33.398 99.5636C33.6795 99.697 34.05 99.7637 34.5093 99.7637C35.0278 99.7637 35.4575 99.6896 35.7983 99.5414C36.1391 99.3933 36.3909 99.1414 36.5539 98.7858C36.7317 98.4302 36.8206 97.9487 36.8206 97.3412V95.8521C36.465 96.2374 36.0131 96.5559 35.4649 96.8078C34.9315 97.0597 34.2722 97.1856 33.4869 97.1856C32.7165 97.1856 32.0349 97.0671 31.4423 96.83C30.8644 96.5781 30.3829 96.23 29.9977 95.7855C29.6124 95.3262 29.3161 94.7779 29.1087 94.1408C28.9013 93.5037 28.7827 92.7851 28.7531 91.9851C28.7383 91.585 28.7383 91.1924 28.7531 90.8072C28.7827 90.0367 28.9013 89.3329 29.1087 88.6958C29.3161 88.0587 29.6124 87.5105 29.9977 87.0512C30.3829 86.5771 30.8644 86.2141 31.4423 85.9622C32.0349 85.6955 32.7165 85.5621 33.4869 85.5621C34.3018 85.5621 34.9982 85.7177 35.576 86.0289C36.1539 86.34 36.628 86.7252 36.9984 87.1845V86.34C36.9984 86.1918 37.0503 86.0659 37.154 85.9622C37.2577 85.8437 37.3836 85.7844 37.5318 85.7844H39.7098C39.858 85.7844 39.9839 85.8437 40.0876 85.9622C40.2062 86.0659 40.2654 86.1918 40.2654 86.34L40.2877 97.03C40.2877 98.1413 40.0728 99.0821 39.6431 99.8526C39.2135 100.623 38.5764 101.208 37.7318 101.608C36.9021 102.023 35.865 102.231 34.6204 102.231ZM34.5093 94.5853C35.0427 94.5853 35.4723 94.4668 35.7983 94.2297C36.1391 93.9779 36.3909 93.6667 36.5539 93.2963C36.7169 92.9111 36.8058 92.511 36.8206 92.0962C36.8354 91.9332 36.8428 91.7035 36.8428 91.4072C36.8428 91.0961 36.8354 90.859 36.8206 90.696C36.8058 90.2812 36.7169 89.8885 36.5539 89.5181C36.3909 89.1329 36.1391 88.8218 35.7983 88.5847C35.4723 88.3476 35.0427 88.2291 34.5093 88.2291C33.9462 88.2291 33.5017 88.355 33.1758 88.6069C32.8498 88.844 32.6128 89.1625 32.4646 89.5626C32.3164 89.9626 32.2275 90.3997 32.1979 90.8738C32.1831 91.2294 32.1831 91.5776 32.1979 91.9184C32.2275 92.4073 32.3164 92.8518 32.4646 93.2519C32.6128 93.6519 32.8498 93.9779 33.1758 94.2297C33.5017 94.4668 33.9462 94.5853 34.5093 94.5853ZM43.9769 97.3412C43.8288 97.3412 43.7028 97.2893 43.5991 97.1856C43.4954 97.0819 43.4436 96.9486 43.4436 96.7856V86.34C43.4436 86.177 43.4954 86.0437 43.5991 85.94C43.7028 85.8362 43.8288 85.7844 43.9769 85.7844H46.155C46.3179 85.7844 46.4513 85.8362 46.555 85.94C46.6587 86.0437 46.7106 86.177 46.7106 86.34V87.2068C47.0958 86.7326 47.5921 86.34 48.1996 86.0289C48.8071 85.7177 49.5479 85.5621 50.4221 85.5621C51.2962 85.5621 52.0593 85.7622 52.7112 86.1622C53.378 86.5474 53.8965 87.1179 54.2669 87.8735C54.6522 88.6143 54.8448 89.5181 54.8448 90.5849V96.7856C54.8448 96.9486 54.7855 97.0819 54.667 97.1856C54.5633 97.2893 54.4373 97.3412 54.2892 97.3412H51.9334C51.7704 97.3412 51.637 97.2893 51.5333 97.1856C51.4296 97.0819 51.3777 96.9486 51.3777 96.7856V90.7183C51.3777 89.933 51.1851 89.3255 50.7999 88.8958C50.4295 88.4513 49.8813 88.2291 49.1553 88.2291C48.4589 88.2291 47.9033 88.4513 47.4884 88.8958C47.0736 89.3255 46.8661 89.933 46.8661 90.7183V96.7856C46.8661 96.9486 46.8143 97.0819 46.7106 97.1856C46.6069 97.2893 46.4809 97.3412 46.3328 97.3412H43.9769ZM58.3966 97.3412C58.2484 97.3412 58.1224 97.2893 58.0187 97.1856C57.915 97.0819 57.8632 96.9486 57.8632 96.7856V86.34C57.8632 86.177 57.915 86.0437 58.0187 85.94C58.1224 85.8362 58.2484 85.7844 58.3966 85.7844H60.619C60.782 85.7844 60.9153 85.8362 61.0191 85.94C61.1228 86.0437 61.1746 86.177 61.1746 86.34V96.7856C61.1746 96.9486 61.1228 97.0819 61.0191 97.1856C60.9153 97.2893 60.782 97.3412 60.619 97.3412H58.3966ZM58.3299 84.0064C58.1817 84.0064 58.0558 83.9546 57.9521 83.8508C57.8483 83.7471 57.7965 83.6138 57.7965 83.4508V81.6728C57.7965 81.5099 57.8483 81.3765 57.9521 81.2728C58.0558 81.1543 58.1817 81.095 58.3299 81.095H60.6635C60.8264 81.095 60.9598 81.1543 61.0635 81.2728C61.182 81.3765 61.2413 81.5099 61.2413 81.6728V83.4508C61.2413 83.6138 61.182 83.7471 61.0635 83.8508C60.9598 83.9546 60.8264 84.0064 60.6635 84.0064H58.3299ZM69.8737 97.3412C68.955 97.3412 68.1698 97.193 67.5178 96.8967C66.8659 96.5855 66.3696 96.1114 66.0288 95.4743C65.7028 94.8372 65.5399 94.0371 65.5399 93.0741V88.4069H63.8063C63.6434 88.4069 63.51 88.355 63.4063 88.2513C63.3026 88.1476 63.2507 88.0143 63.2507 87.8513V86.34C63.2507 86.177 63.3026 86.0437 63.4063 85.94C63.51 85.8362 63.6434 85.7844 63.8063 85.7844H65.5399V82.1173C65.5399 81.9543 65.5917 81.821 65.6954 81.7173C65.814 81.6136 65.9473 81.5617 66.0955 81.5617H68.2735C68.4365 81.5617 68.5698 81.6136 68.6735 81.7173C68.7772 81.821 68.8291 81.9543 68.8291 82.1173V85.7844H71.6072C71.7553 85.7844 71.8813 85.8362 71.985 85.94C72.0887 86.0437 72.1406 86.177 72.1406 86.34V87.8513C72.1406 88.0143 72.0887 88.1476 71.985 88.2513C71.8813 88.355 71.7553 88.4069 71.6072 88.4069H68.8291V92.8074C68.8291 93.3704 68.9254 93.8149 69.118 94.1408C69.3254 94.452 69.681 94.6076 70.1848 94.6076H71.8072C71.9554 94.6076 72.0813 94.6594 72.185 94.7631C72.2887 94.8668 72.3406 94.9928 72.3406 95.141V96.7856C72.3406 96.9486 72.2887 97.0819 72.185 97.1856C72.0813 97.2893 71.9554 97.3412 71.8072 97.3412H69.8737ZM75.1685 97.3412C75.0203 97.3412 74.8944 97.2893 74.7907 97.1856C74.687 97.0819 74.6351 96.9486 74.6351 96.7856V86.34C74.6351 86.177 74.687 86.0437 74.7907 85.94C74.8944 85.8362 75.0203 85.7844 75.1685 85.7844H77.3909C77.5539 85.7844 77.6873 85.8362 77.791 85.94C77.8947 86.0437 77.9466 86.177 77.9466 86.34V96.7856C77.9466 96.9486 77.8947 97.0819 77.791 97.1856C77.6873 97.2893 77.5539 97.3412 77.3909 97.3412H75.1685ZM75.1018 84.0064C74.9537 84.0064 74.8277 83.9546 74.724 83.8508C74.6203 83.7471 74.5684 83.6138 74.5684 83.4508V81.6728C74.5684 81.5099 74.6203 81.3765 74.724 81.2728C74.8277 81.1543 74.9537 81.095 75.1018 81.095H77.4354C77.5984 81.095 77.7317 81.1543 77.8354 81.2728C77.954 81.3765 78.0132 81.5099 78.0132 81.6728V83.4508C78.0132 83.6138 77.954 83.7471 77.8354 83.8508C77.7317 83.9546 77.5984 84.0064 77.4354 84.0064H75.1018ZM81.6228 97.3412C81.4747 97.3412 81.3487 97.2893 81.245 97.1856C81.1413 97.0819 81.0894 96.9486 81.0894 96.7856V86.34C81.0894 86.177 81.1413 86.0437 81.245 85.94C81.3487 85.8362 81.4747 85.7844 81.6228 85.7844H83.8453C84.0083 85.7844 84.1416 85.8362 84.2453 85.94C84.349 86.0437 84.4009 86.177 84.4009 86.34V96.7856C84.4009 96.9486 84.349 97.0819 84.2453 97.1856C84.1416 97.2893 84.0083 97.3412 83.8453 97.3412H81.6228ZM81.5562 84.0064C81.408 84.0064 81.282 83.9546 81.1783 83.8508C81.0746 83.7471 81.0228 83.6138 81.0228 83.4508V81.6728C81.0228 81.5099 81.0746 81.3765 81.1783 81.2728C81.282 81.1543 81.408 81.095 81.5562 81.095H83.8897C84.0527 81.095 84.1861 81.1543 84.2898 81.2728C84.4083 81.3765 84.4676 81.5099 84.4676 81.6728V83.4508C84.4676 83.6138 84.4083 83.7471 84.2898 83.8508C84.1861 83.9546 84.0527 84.0064 83.8897 84.0064H81.5562ZM91.6331 97.3412C91.4109 97.3412 91.2405 97.2893 91.1219 97.1856C91.0182 97.0671 90.9293 96.9337 90.8552 96.7856L86.677 86.4734C86.6474 86.4141 86.6326 86.3474 86.6326 86.2733C86.6326 86.14 86.677 86.0289 86.7659 85.94C86.8696 85.8362 86.9882 85.7844 87.1215 85.7844H89.2773C89.4699 85.7844 89.6107 85.8362 89.6996 85.94C89.8033 86.0437 89.87 86.14 89.8996 86.2289L92.6332 93.563L95.3668 86.2289C95.4113 86.14 95.478 86.0437 95.5669 85.94C95.6706 85.8362 95.8113 85.7844 95.9891 85.7844H98.1449C98.2783 85.7844 98.3894 85.8362 98.4783 85.94C98.582 86.0289 98.6339 86.14 98.6339 86.2733C98.6339 86.3474 98.6265 86.4141 98.6116 86.4734L94.4112 96.7856C94.3519 96.9337 94.263 97.0671 94.1445 97.1856C94.026 97.2893 93.8556 97.3412 93.6333 97.3412H91.6331ZM100.237 97.3412C100.074 97.3412 99.9407 97.2893 99.8369 97.1856C99.7332 97.0819 99.6814 96.9486 99.6814 96.7856V94.2964C99.6814 94.1334 99.7332 94.0001 99.8369 93.8964C99.9407 93.7927 100.074 93.7408 100.237 93.7408H102.726C102.889 93.7408 103.022 93.7927 103.126 93.8964C103.23 94.0001 103.282 94.1334 103.282 94.2964V96.7856C103.282 96.9486 103.23 97.0819 103.126 97.1856C103.022 97.2893 102.889 97.3412 102.726 97.3412H100.237ZM109.713 97.5634C108.928 97.5634 108.224 97.4153 107.601 97.1189C106.979 96.8078 106.483 96.3929 106.112 95.8744C105.742 95.3558 105.557 94.7779 105.557 94.1408C105.557 93.0889 105.979 92.2592 106.824 91.6517C107.683 91.0442 108.809 90.6294 110.202 90.4071L113.113 89.9848V89.5848C113.113 89.007 112.98 88.5625 112.713 88.2513C112.446 87.9402 111.98 87.7846 111.313 87.7846C110.824 87.7846 110.431 87.8809 110.135 88.0735C109.839 88.2661 109.609 88.518 109.446 88.8292C109.328 89.0218 109.157 89.1181 108.935 89.1181H106.824C106.661 89.1181 106.535 89.0736 106.446 88.9847C106.357 88.881 106.32 88.7625 106.335 88.6291C106.335 88.3773 106.431 88.0809 106.624 87.7402C106.816 87.3994 107.113 87.066 107.513 86.74C107.913 86.3993 108.424 86.1178 109.046 85.8955C109.668 85.6733 110.431 85.5621 111.335 85.5621C112.269 85.5621 113.069 85.6733 113.735 85.8955C114.402 86.1178 114.936 86.4289 115.336 86.8289C115.736 87.229 116.032 87.6957 116.225 88.2291C116.417 88.7477 116.514 89.3107 116.514 89.9182V96.7856C116.514 96.9486 116.462 97.0819 116.358 97.1856C116.254 97.2893 116.121 97.3412 115.958 97.3412H113.78C113.632 97.3412 113.506 97.2893 113.402 97.1856C113.298 97.0819 113.247 96.9486 113.247 96.7856V95.9633C113.054 96.2448 112.795 96.5115 112.469 96.7633C112.143 97.0004 111.75 97.193 111.291 97.3412C110.846 97.4894 110.32 97.5634 109.713 97.5634ZM110.602 95.2521C111.091 95.2521 111.528 95.1484 111.913 94.9409C112.298 94.7335 112.602 94.4149 112.824 93.9853C113.047 93.5556 113.158 93.0148 113.158 92.3629V91.9851L111.091 92.3184C110.291 92.4518 109.705 92.6518 109.335 92.9185C108.965 93.1852 108.779 93.5111 108.779 93.8964C108.779 94.1779 108.861 94.4224 109.024 94.6298C109.202 94.8372 109.431 94.9928 109.713 95.0965C109.994 95.2002 110.291 95.2521 110.602 95.2521ZM120.093 97.3412C119.945 97.3412 119.819 97.2893 119.716 97.1856C119.612 97.0819 119.56 96.9486 119.56 96.7856V86.34C119.56 86.177 119.612 86.0437 119.716 85.94C119.819 85.8362 119.945 85.7844 120.093 85.7844H122.316C122.479 85.7844 122.612 85.8362 122.716 85.94C122.82 86.0437 122.872 86.177 122.872 86.34V96.7856C122.872 96.9486 122.82 97.0819 122.716 97.1856C122.612 97.2893 122.479 97.3412 122.316 97.3412H120.093ZM120.027 84.0064C119.879 84.0064 119.753 83.9546 119.649 83.8508C119.545 83.7471 119.493 83.6138 119.493 83.4508V81.6728C119.493 81.5099 119.545 81.3765 119.649 81.2728C119.753 81.1543 119.879 81.095 120.027 81.095H122.36C122.523 81.095 122.657 81.1543 122.76 81.2728C122.879 81.3765 122.938 81.5099 122.938 81.6728V83.4508C122.938 83.6138 122.879 83.7471 122.76 83.8508C122.657 83.9546 122.523 84.0064 122.36 84.0064H120.027Z" fill="url(#paint0_linear_496_219)"/>
<path d="M40.0162 53.5751C50.1652 66.216 60.2916 58.8421 64.0861 53.5751C74.6769 69.3762 87.8162 54.7644 87.7029 55.1042C95.5752 50.4035 94.7257 41.0587 94.669 40.6623C98.6901 30.5812 92.0699 26.9708 92.0699 24.5896C92.0699 14.5885 83.9738 12.0486 83.815 11.8898C76.4525 -2.38218 64.0861 5.20877 64.0861 4.98223C49.2477 -2.09715 44.4338 12.0616 44.3205 12.0616C36.5049 14.4298 36.5615 22.9355 36.5049 22.9355C29.0857 30.4113 33.1747 38.7181 33.3333 39.3597C31.8042 48.5345 39.0483 53.3229 40.0162 53.5751Z" stroke="url(#paint1_linear_496_219)" stroke-width="4.76242" stroke-linecap="round"/>
<mask id="path-3-inside-1_496_219" fill="white">
<path d="M57.7526 42.8423C57.5171 42.8423 57.3245 42.7674 57.1746 42.6175C57.0247 42.4676 56.9498 42.275 56.9498 42.0395V20.8456C56.9498 20.6101 57.0247 20.4174 57.1746 20.2675C57.3245 20.1177 57.5171 20.0428 57.7526 20.0428H60.8996C61.1137 20.0428 61.2956 20.1177 61.4455 20.2675C61.5954 20.4174 61.6703 20.6101 61.6703 20.8456V31.6994L66.6155 26.6899C66.7868 26.5401 66.9366 26.4116 67.0651 26.3046C67.215 26.1976 67.4397 26.144 67.7394 26.144H71.3681C71.5822 26.144 71.7534 26.219 71.8819 26.3688C72.0103 26.4973 72.0746 26.6578 72.0746 26.8505C72.0746 26.9361 72.0532 27.0325 72.0103 27.1395C71.9675 27.2466 71.8926 27.3322 71.7856 27.3964L65.5879 33.6261L72.5884 41.622C72.781 41.7933 72.8774 41.9646 72.8774 42.1358C72.8774 42.3285 72.8024 42.4998 72.6526 42.6496C72.5241 42.7781 72.3636 42.8423 72.1709 42.8423H68.4459C68.1248 42.8423 67.8893 42.7888 67.7394 42.6817C67.611 42.5747 67.4611 42.4462 67.2899 42.2964L61.6703 36.0024V42.0395C61.6703 42.275 61.5954 42.4676 61.4455 42.6175C61.2956 42.7674 61.1137 42.8423 60.8996 42.8423H57.7526Z"/>
</mask>
<path d="M57.7526 42.8423C57.5171 42.8423 57.3245 42.7674 57.1746 42.6175C57.0247 42.4676 56.9498 42.275 56.9498 42.0395V20.8456C56.9498 20.6101 57.0247 20.4174 57.1746 20.2675C57.3245 20.1177 57.5171 20.0428 57.7526 20.0428H60.8996C61.1137 20.0428 61.2956 20.1177 61.4455 20.2675C61.5954 20.4174 61.6703 20.6101 61.6703 20.8456V31.6994L66.6155 26.6899C66.7868 26.5401 66.9366 26.4116 67.0651 26.3046C67.215 26.1976 67.4397 26.144 67.7394 26.144H71.3681C71.5822 26.144 71.7534 26.219 71.8819 26.3688C72.0103 26.4973 72.0746 26.6578 72.0746 26.8505C72.0746 26.9361 72.0532 27.0325 72.0103 27.1395C71.9675 27.2466 71.8926 27.3322 71.7856 27.3964L65.5879 33.6261L72.5884 41.622C72.781 41.7933 72.8774 41.9646 72.8774 42.1358C72.8774 42.3285 72.8024 42.4998 72.6526 42.6496C72.5241 42.7781 72.3636 42.8423 72.1709 42.8423H68.4459C68.1248 42.8423 67.8893 42.7888 67.7394 42.6817C67.611 42.5747 67.4611 42.4462 67.2899 42.2964L61.6703 36.0024V42.0395C61.6703 42.275 61.5954 42.4676 61.4455 42.6175C61.2956 42.7674 61.1137 42.8423 60.8996 42.8423H57.7526Z" fill="#00CEC9"/>
<path d="M57.1746 42.6175L55.8276 43.9645H55.8276L57.1746 42.6175ZM57.1746 20.2675L58.5216 21.6146L58.5216 21.6146L57.1746 20.2675ZM61.4455 20.2675L60.0985 21.6146L60.0985 21.6146L61.4455 20.2675ZM61.6703 31.6994H59.7653V36.3407L63.026 33.0377L61.6703 31.6994ZM66.6155 26.6899L65.3611 25.2563L65.3087 25.3021L65.2599 25.3516L66.6155 26.6899ZM67.0651 26.3046L65.9579 24.7545L65.9001 24.7957L65.8456 24.8412L67.0651 26.3046ZM71.8819 26.3688L70.4355 27.6086L70.4832 27.6641L70.5349 27.7158L71.8819 26.3688ZM72.0103 27.1395L70.2416 26.432L70.2416 26.432L72.0103 27.1395ZM71.7856 27.3964L70.8055 25.7629L70.6022 25.8849L70.4351 26.0529L71.7856 27.3964ZM65.5879 33.6261L64.2375 32.2826L62.9834 33.5432L64.1547 34.881L65.5879 33.6261ZM72.5884 41.622L71.1551 42.8769L71.2336 42.9666L71.3228 43.0458L72.5884 41.622ZM72.6526 42.6496L73.9996 43.9966L73.9996 43.9966L72.6526 42.6496ZM67.7394 42.6817L66.5199 44.1452L66.5745 44.1906L66.6322 44.2319L67.7394 42.6817ZM67.2899 42.2964L65.8689 43.5651L65.9471 43.6527L66.0355 43.73L67.2899 42.2964ZM61.6703 36.0024L63.0913 34.7337L59.7653 31.0086V36.0024H61.6703ZM61.4455 42.6175L60.0985 41.2705L61.4455 42.6175ZM57.7526 42.8423V40.9373C57.8385 40.9373 57.9697 40.9515 58.1219 41.0107C58.2781 41.0714 58.4146 41.1635 58.5216 41.2705L57.1746 42.6175L55.8276 43.9645C56.376 44.5129 57.0734 44.7473 57.7526 44.7473V42.8423ZM57.1746 42.6175L58.5216 41.2705C58.6286 41.3775 58.7207 41.514 58.7814 41.6702C58.8406 41.8224 58.8548 41.9536 58.8548 42.0395H56.9498H55.0448C55.0448 42.7187 55.2792 43.4161 55.8276 43.9645L57.1746 42.6175ZM56.9498 42.0395H58.8548V20.8456H56.9498H55.0448V42.0395H56.9498ZM56.9498 20.8456H58.8548C58.8548 20.9315 58.8406 21.0627 58.7814 21.2149C58.7207 21.371 58.6286 21.5075 58.5216 21.6146L57.1746 20.2675L55.8276 18.9205C55.2792 19.4689 55.0448 20.1664 55.0448 20.8456H56.9498ZM57.1746 20.2675L58.5216 21.6146C58.4146 21.7216 58.2781 21.8137 58.1219 21.8744C57.9697 21.9336 57.8385 21.9477 57.7526 21.9477V20.0428V18.1378C57.0734 18.1378 56.376 18.3721 55.8276 18.9205L57.1746 20.2675ZM57.7526 20.0428V21.9477H60.8996V20.0428V18.1378H57.7526V20.0428ZM60.8996 20.0428V21.9477C60.7798 21.9477 60.6299 21.9257 60.4713 21.8604C60.3123 21.795 60.1876 21.7037 60.0985 21.6146L61.4455 20.2675L62.7925 18.9205C62.2814 18.4094 61.6131 18.1378 60.8996 18.1378V20.0428ZM61.4455 20.2675L60.0985 21.6146C59.9914 21.5075 59.8994 21.371 59.8386 21.2149C59.7794 21.0627 59.7653 20.9315 59.7653 20.8456H61.6703H63.5752C63.5752 20.1664 63.3409 19.4689 62.7925 18.9205L61.4455 20.2675ZM61.6703 20.8456H59.7653V31.6994H61.6703H63.5752V20.8456H61.6703ZM61.6703 31.6994L63.026 33.0377L67.9712 28.0282L66.6155 26.6899L65.2599 25.3516L60.3146 30.3611L61.6703 31.6994ZM66.6155 26.6899L67.87 28.1236C68.0335 27.9805 68.1713 27.8625 68.2846 27.768L67.0651 26.3046L65.8456 24.8412C65.702 24.9608 65.5401 25.0997 65.3611 25.2563L66.6155 26.6899ZM67.0651 26.3046L68.1723 27.8547C68.003 27.9757 67.8556 28.0211 67.7873 28.0373C67.7198 28.0534 67.6968 28.049 67.7394 28.049V26.144V24.2391C67.2705 24.2391 66.5767 24.3125 65.9579 24.7545L67.0651 26.3046ZM67.7394 26.144V28.049H71.3681V26.144V24.2391H67.7394V26.144ZM71.3681 26.144V28.049C71.2503 28.049 71.0812 28.0276 70.8936 27.9455C70.7018 27.8616 70.5473 27.7389 70.4355 27.6086L71.8819 26.3688L73.3283 25.1291C72.8046 24.5182 72.085 24.2391 71.3681 24.2391V26.144ZM71.8819 26.3688L70.5349 27.7158C70.4261 27.607 70.3262 27.4643 70.2577 27.2931C70.1901 27.124 70.1696 26.9689 70.1696 26.8505H72.0746H73.9795C73.9795 26.1866 73.738 25.5309 73.2289 25.0218L71.8819 26.3688ZM72.0746 26.8505H70.1696C70.1696 26.6257 70.2237 26.4767 70.2416 26.432L72.0103 27.1395L73.7791 27.847C73.8826 27.5882 73.9795 27.2466 73.9795 26.8505H72.0746ZM72.0103 27.1395L70.2416 26.432C70.3665 26.1199 70.5869 25.8941 70.8055 25.7629L71.7856 27.3964L72.7657 29.0299C73.1983 28.7703 73.5686 28.3732 73.7791 27.847L72.0103 27.1395ZM71.7856 27.3964L70.4351 26.0529L64.2375 32.2826L65.5879 33.6261L66.9384 34.9697L73.1361 28.7399L71.7856 27.3964ZM65.5879 33.6261L64.1547 34.881L71.1551 42.8769L72.5884 41.622L74.0216 40.3672L67.0212 32.3713L65.5879 33.6261ZM72.5884 41.622L71.3228 43.0458C71.3153 43.0392 70.9724 42.7345 70.9724 42.1358H72.8774H74.7823C74.7823 41.1946 74.2467 40.5474 73.854 40.1982L72.5884 41.622ZM72.8774 42.1358H70.9724C70.9724 41.9776 71.0048 41.8078 71.0759 41.6452C71.1455 41.4861 71.2348 41.3734 71.3056 41.3026L72.6526 42.6496L73.9996 43.9966C74.4675 43.5287 74.7823 42.8866 74.7823 42.1358H72.8774ZM72.6526 42.6496L71.3056 41.3026C71.4144 41.1938 71.5571 41.0939 71.7283 41.0254C71.8974 40.9578 72.0525 40.9373 72.1709 40.9373V42.8423V44.7473C72.8348 44.7473 73.4905 44.5057 73.9996 43.9966L72.6526 42.6496ZM72.1709 42.8423V40.9373H68.4459V42.8423V44.7473H72.1709V42.8423ZM68.4459 42.8423V40.9373C68.384 40.9373 68.3931 40.9315 68.4506 40.9445C68.5064 40.9572 68.6627 41.0002 68.8467 41.1316L67.7394 42.6817L66.6322 44.2319C67.2676 44.6857 67.9898 44.7473 68.4459 44.7473V42.8423ZM67.7394 42.6817L68.959 41.2183C68.8456 41.1238 68.7079 41.0058 68.5443 40.8627L67.2899 42.2964L66.0355 43.73C66.2144 43.8866 66.3764 44.0256 66.5199 44.1452L67.7394 42.6817ZM67.2899 42.2964L68.7109 41.0276L63.0913 34.7337L61.6703 36.0024L60.2493 37.2712L65.8689 43.5651L67.2899 42.2964ZM61.6703 36.0024H59.7653V42.0395H61.6703H63.5752V36.0024H61.6703ZM61.6703 42.0395H59.7653C59.7653 41.9536 59.7794 41.8224 59.8386 41.6702C59.8994 41.514 59.9914 41.3775 60.0985 41.2705L61.4455 42.6175L62.7925 43.9645C63.3409 43.4161 63.5752 42.7187 63.5752 42.0395H61.6703ZM61.4455 42.6175L60.0985 41.2705C60.1876 41.1814 60.3123 41.0901 60.4713 41.0246C60.6299 40.9593 60.7798 40.9373 60.8996 40.9373V42.8423V44.7473C61.6131 44.7473 62.2813 44.4757 62.7925 43.9645L61.4455 42.6175ZM60.8996 42.8423V40.9373H57.7526V42.8423V44.7473H60.8996V42.8423Z" fill="#00CEC9" mask="url(#path-3-inside-1_496_219)"/>
<defs>
<linearGradient id="paint0_linear_496_219" x1="0" y1="89.3412" x2="125" y2="89.3412" gradientUnits="userSpaceOnUse">
<stop stop-color="#5F27CD"/>
<stop offset="0.865385" stop-color="#40E0D0"/>
</linearGradient>
<linearGradient id="paint1_linear_496_219" x1="64.0162" y1="3" x2="64.1343" y2="50.7829" gradientUnits="userSpaceOnUse">
<stop stop-color="#5F27CD"/>
<stop offset="1" stop-color="#00CEC9"/>
</linearGradient>
</defs>
</svg>
