<svg width="70" height="64" viewBox="0 0 70 64" fill="none" xmlns="http://www.w3.org/2000/svg">
<path d="M10.9489 53.6077C21.0979 66.2486 31.2242 58.8747 35.0187 53.6077C45.6095 69.4088 58.7488 54.797 58.6355 55.1368C66.5078 50.4361 65.6583 41.0913 65.6016 40.6949C69.6227 30.6138 63.0025 27.0034 63.0025 24.6222C63.0025 14.6211 54.9064 12.0812 54.7476 11.9224C47.3851 -2.34958 35.0187 5.24136 35.0187 5.01482C20.1804 -2.06456 15.3664 12.0942 15.2531 12.0942C7.43749 14.4624 7.49413 22.9681 7.43749 22.9681C0.0183055 30.4439 4.10728 38.7507 4.26593 39.3923C2.73678 48.5671 9.98092 53.3555 10.9489 53.6077Z" stroke="url(#paint0_linear_493_37)" stroke-width="4.76242" stroke-linecap="round"/>
<mask id="path-2-inside-1_493_37" fill="white">
<path d="M28.6852 42.8749C28.4497 42.8749 28.2571 42.8 28.1072 42.6502C27.9574 42.5003 27.8824 42.3076 27.8824 42.0721V20.8782C27.8824 20.6427 27.9574 20.4501 28.1072 20.3002C28.2571 20.1503 28.4497 20.0754 28.6852 20.0754H31.8322C32.0463 20.0754 32.2283 20.1503 32.3781 20.3002C32.528 20.4501 32.6029 20.6427 32.6029 20.8782V31.7321L37.5481 26.7226C37.7194 26.5727 37.8693 26.4443 37.9977 26.3373C38.1476 26.2302 38.3724 26.1767 38.6721 26.1767H42.3007C42.5148 26.1767 42.6861 26.2516 42.8145 26.4015C42.943 26.5299 43.0072 26.6905 43.0072 26.8832C43.0072 26.9688 42.9858 27.0651 42.943 27.1722C42.9001 27.2792 42.8252 27.3648 42.7182 27.4291L36.5206 33.6588L43.521 41.6547C43.7137 41.8259 43.81 41.9972 43.81 42.1685C43.81 42.3611 43.7351 42.5324 43.5852 42.6823C43.4568 42.8107 43.2962 42.8749 43.1035 42.8749H39.3785C39.0574 42.8749 38.8219 42.8214 38.6721 42.7144C38.5436 42.6073 38.3938 42.4789 38.2225 42.329L32.6029 36.0351V42.0721C32.6029 42.3076 32.528 42.5003 32.3781 42.6502C32.2283 42.8 32.0463 42.8749 31.8322 42.8749H28.6852Z"/>
</mask>
<path d="M28.6852 42.8749C28.4497 42.8749 28.2571 42.8 28.1072 42.6502C27.9574 42.5003 27.8824 42.3076 27.8824 42.0721V20.8782C27.8824 20.6427 27.9574 20.4501 28.1072 20.3002C28.2571 20.1503 28.4497 20.0754 28.6852 20.0754H31.8322C32.0463 20.0754 32.2283 20.1503 32.3781 20.3002C32.528 20.4501 32.6029 20.6427 32.6029 20.8782V31.7321L37.5481 26.7226C37.7194 26.5727 37.8693 26.4443 37.9977 26.3373C38.1476 26.2302 38.3724 26.1767 38.6721 26.1767H42.3007C42.5148 26.1767 42.6861 26.2516 42.8145 26.4015C42.943 26.5299 43.0072 26.6905 43.0072 26.8832C43.0072 26.9688 42.9858 27.0651 42.943 27.1722C42.9001 27.2792 42.8252 27.3648 42.7182 27.4291L36.5206 33.6588L43.521 41.6547C43.7137 41.8259 43.81 41.9972 43.81 42.1685C43.81 42.3611 43.7351 42.5324 43.5852 42.6823C43.4568 42.8107 43.2962 42.8749 43.1035 42.8749H39.3785C39.0574 42.8749 38.8219 42.8214 38.6721 42.7144C38.5436 42.6073 38.3938 42.4789 38.2225 42.329L32.6029 36.0351V42.0721C32.6029 42.3076 32.528 42.5003 32.3781 42.6502C32.2283 42.8 32.0463 42.8749 31.8322 42.8749H28.6852Z" fill="url(#paint1_linear_493_37)"/>
<path d="M28.1072 42.6502L26.7602 43.9972H26.7602L28.1072 42.6502ZM28.1072 20.3002L29.4542 21.6472L29.4542 21.6472L28.1072 20.3002ZM32.3781 20.3002L31.0311 21.6472L31.0311 21.6472L32.3781 20.3002ZM32.6029 31.7321H30.6979V36.3734L33.9586 33.0704L32.6029 31.7321ZM37.5481 26.7226L36.2937 25.289L36.2414 25.3348L36.1925 25.3843L37.5481 26.7226ZM37.9977 26.3373L36.8905 24.7871L36.8327 24.8284L36.7782 24.8738L37.9977 26.3373ZM42.8145 26.4015L41.3682 27.6412L41.4158 27.6968L41.4675 27.7485L42.8145 26.4015ZM42.943 27.1722L41.1743 26.4647L41.1742 26.4647L42.943 27.1722ZM42.7182 27.4291L41.7381 25.7956L41.5348 25.9175L41.3677 26.0855L42.7182 27.4291ZM36.5206 33.6588L35.1701 32.3153L33.916 33.5758L35.0873 34.9136L36.5206 33.6588ZM43.521 41.6547L42.0877 42.9095L42.1663 42.9992L42.2554 43.0785L43.521 41.6547ZM43.5852 42.6823L44.9322 44.0293L44.9322 44.0293L43.5852 42.6823ZM38.6721 42.7144L37.4525 44.1778L37.5071 44.2233L37.5648 44.2645L38.6721 42.7144ZM38.2225 42.329L36.8015 43.5978L36.8797 43.6854L36.9681 43.7627L38.2225 42.329ZM32.6029 36.0351L34.0239 34.7663L30.6979 31.0413V36.0351H32.6029ZM32.3781 42.6502L31.0311 41.3031L32.3781 42.6502ZM28.6852 42.8749V40.97C28.7711 40.97 28.9023 40.9841 29.0546 41.0433C29.2107 41.104 29.3472 41.1961 29.4542 41.3031L28.1072 42.6502L26.7602 43.9972C27.3086 44.5456 28.006 44.7799 28.6852 44.7799V42.8749ZM28.1072 42.6502L29.4542 41.3031C29.5613 41.4102 29.6533 41.5467 29.7141 41.7028C29.7733 41.855 29.7874 41.9862 29.7874 42.0721H27.8824H25.9775C25.9775 42.7513 26.2118 43.4488 26.7602 43.9972L28.1072 42.6502ZM27.8824 42.0721H29.7874V20.8782H27.8824H25.9775V42.0721H27.8824ZM27.8824 20.8782H29.7874C29.7874 20.9641 29.7733 21.0953 29.7141 21.2475C29.6533 21.4037 29.5613 21.5402 29.4542 21.6472L28.1072 20.3002L26.7602 18.9532C26.2118 19.5016 25.9775 20.199 25.9775 20.8782H27.8824ZM28.1072 20.3002L29.4542 21.6472C29.3472 21.7542 29.2107 21.8463 29.0546 21.907C28.9023 21.9662 28.7711 21.9804 28.6852 21.9804V20.0754V18.1704C28.006 18.1704 27.3086 18.4048 26.7602 18.9532L28.1072 20.3002ZM28.6852 20.0754V21.9804H31.8322V20.0754V18.1704H28.6852V20.0754ZM31.8322 20.0754V21.9804C31.7124 21.9804 31.5625 21.9584 31.4039 21.8931C31.2449 21.8276 31.1202 21.7363 31.0311 21.6472L32.3781 20.3002L33.7251 18.9532C33.214 18.442 32.5458 18.1704 31.8322 18.1704V20.0754ZM32.3781 20.3002L31.0311 21.6472C30.9241 21.5402 30.832 21.4037 30.7713 21.2475C30.7121 21.0953 30.6979 20.9641 30.6979 20.8782H32.6029H34.5079C34.5079 20.199 34.2735 19.5016 33.7251 18.9532L32.3781 20.3002ZM32.6029 20.8782H30.6979V31.7321H32.6029H34.5079V20.8782H32.6029ZM32.6029 31.7321L33.9586 33.0704L38.9038 28.0609L37.5481 26.7226L36.1925 25.3843L31.2472 30.3938L32.6029 31.7321ZM37.5481 26.7226L38.8026 28.1562C38.9661 28.0131 39.1039 27.8952 39.2172 27.8007L37.9977 26.3373L36.7782 24.8738C36.6347 24.9934 36.4727 25.1324 36.2937 25.289L37.5481 26.7226ZM37.9977 26.3373L39.105 27.8874C38.9356 28.0083 38.7882 28.0537 38.7199 28.07C38.6524 28.0861 38.6295 28.0817 38.6721 28.0817V26.1767V24.2717C38.2031 24.2717 37.5093 24.3451 36.8905 24.7871L37.9977 26.3373ZM38.6721 26.1767V28.0817H42.3007V26.1767V24.2717H38.6721V26.1767ZM42.3007 26.1767V28.0817C42.1829 28.0817 42.0138 28.0602 41.8262 27.9781C41.6344 27.8942 41.4799 27.7716 41.3682 27.6412L42.8145 26.4015L44.2609 25.1617C43.7372 24.5508 43.0176 24.2717 42.3007 24.2717V26.1767ZM42.8145 26.4015L41.4675 27.7485C41.3587 27.6397 41.2588 27.497 41.1903 27.3257C41.1227 27.1567 41.1022 27.0015 41.1022 26.8832H43.0072H44.9122C44.9122 26.2193 44.6706 25.5635 44.1615 25.0545L42.8145 26.4015ZM43.0072 26.8832H41.1022C41.1022 26.6584 41.1564 26.5094 41.1743 26.4647L42.943 27.1722L44.7117 27.8797C44.8152 27.6209 44.9122 27.2792 44.9122 26.8832H43.0072ZM42.943 27.1722L41.1742 26.4647C41.2991 26.1525 41.5195 25.9267 41.7381 25.7956L42.7182 27.4291L43.6983 29.0626C44.1309 28.803 44.5012 28.4059 44.7117 27.8796L42.943 27.1722ZM42.7182 27.4291L41.3677 26.0855L35.1701 32.3153L36.5206 33.6588L37.8711 35.0023L44.0687 28.7726L42.7182 27.4291ZM36.5206 33.6588L35.0873 34.9136L42.0877 42.9095L43.521 41.6547L44.9543 40.3998L37.9538 32.404L36.5206 33.6588ZM43.521 41.6547L42.2554 43.0785C42.2479 43.0719 41.905 42.7672 41.905 42.1685H43.81H45.715C45.715 41.2272 45.1794 40.58 44.7866 40.2309L43.521 41.6547ZM43.81 42.1685H41.905C41.905 42.0103 41.9374 41.8405 42.0085 41.6779C42.0781 41.5188 42.1674 41.406 42.2382 41.3353L43.5852 42.6823L44.9322 44.0293C45.4001 43.5614 45.715 42.9193 45.715 42.1685H43.81ZM43.5852 42.6823L42.2382 41.3352C42.347 41.2264 42.4897 41.1266 42.661 41.0581C42.83 40.9904 42.9851 40.97 43.1035 40.97V42.8749V44.7799C43.7674 44.7799 44.4232 44.5383 44.9322 44.0293L43.5852 42.6823ZM43.1035 42.8749V40.97H39.3785V42.8749V44.7799H43.1035V42.8749ZM39.3785 42.8749V40.97C39.3166 40.97 39.3257 40.9641 39.3833 40.9772C39.439 40.9899 39.5953 41.0328 39.7793 41.1642L38.6721 42.7144L37.5648 44.2645C38.2002 44.7183 38.9224 44.7799 39.3785 44.7799V42.8749ZM38.6721 42.7144L39.8916 41.2509C39.7782 41.1565 39.6405 41.0385 39.4769 40.8954L38.2225 42.329L36.9681 43.7627C37.1471 43.9193 37.309 44.0582 37.4525 44.1778L38.6721 42.7144ZM38.2225 42.329L39.6435 41.0603L34.0239 34.7663L32.6029 36.0351L31.1819 37.3038L36.8015 43.5978L38.2225 42.329ZM32.6029 36.0351H30.6979V42.0721H32.6029H34.5079V36.0351H32.6029ZM32.6029 42.0721H30.6979C30.6979 41.9862 30.7121 41.855 30.7713 41.7028C30.832 41.5467 30.9241 41.4102 31.0311 41.3031L32.3781 42.6502L33.7251 43.9972C34.2735 43.4488 34.5079 42.7513 34.5079 42.0721H32.6029ZM32.3781 42.6502L31.0311 41.3031C31.1202 41.214 31.2449 41.1227 31.4039 41.0573C31.5625 40.992 31.7124 40.97 31.8322 40.97V42.8749V44.7799C32.5458 44.7799 33.214 44.5083 33.7251 43.9972L32.3781 42.6502ZM31.8322 42.8749V40.97H28.6852V42.8749V44.7799H31.8322V42.8749Z" fill="url(#paint2_linear_493_37)" mask="url(#path-2-inside-1_493_37)"/>
<defs>
<linearGradient id="paint0_linear_493_37" x1="34.9488" y1="3.03259" x2="35.0669" y2="50.8155" gradientUnits="userSpaceOnUse">
<stop stop-color="#5F27CD"/>
<stop offset="1" stop-color="#00CEC9"/>
</linearGradient>
<linearGradient id="paint1_linear_493_37" x1="35.3594" y1="12.8749" x2="35.5303" y2="44.2155" gradientUnits="userSpaceOnUse">
<stop stop-color="#5F27CD"/>
<stop offset="1" stop-color="#00CEC9"/>
</linearGradient>
<linearGradient id="paint2_linear_493_37" x1="35.3594" y1="12.8749" x2="35.5303" y2="44.2155" gradientUnits="userSpaceOnUse">
<stop stop-color="#5F27CD"/>
<stop offset="1" stop-color="#00CEC9"/>
</linearGradient>
</defs>
</svg>
