<svg width="197" height="60" viewBox="0 0 197 60" fill="none" xmlns="http://www.w3.org/2000/svg">
<path d="M10.4897 50.3595C20.0525 62.2703 29.5939 55.3223 33.1692 50.3595C43.1482 65.248 55.5285 51.4802 55.4218 51.8003C62.8393 47.3712 62.0389 38.5662 61.9855 38.1926C65.7743 28.6939 59.5365 25.2921 59.5365 23.0484C59.5365 13.625 51.9081 11.2318 51.7585 11.0822C44.8212 -2.36541 33.1692 4.78705 33.1692 4.5736C19.188 -2.09685 14.6521 11.244 14.5453 11.244C7.18116 13.4754 7.23453 21.4898 7.18116 21.4898C0.19054 28.5338 4.04332 36.3608 4.1928 36.9653C2.75199 45.6102 9.57768 50.1219 10.4897 50.3595Z" stroke="#F5F5FA" stroke-width="4.48732" stroke-linecap="round"/>
<mask id="path-2-inside-1_578_36" fill="white">
<path d="M27.2036 39.9797C26.9818 39.9797 26.8002 39.9091 26.659 39.7679C26.5178 39.6267 26.4472 39.4451 26.4472 39.2232V19.2536C26.4472 19.0317 26.5178 18.8501 26.659 18.7089C26.8002 18.5677 26.9818 18.4971 27.2036 18.4971H30.1688C30.3705 18.4971 30.542 18.5677 30.6832 18.7089C30.8244 18.8501 30.895 19.0317 30.895 19.2536V29.4805L35.5546 24.7604C35.716 24.6192 35.8572 24.4981 35.9782 24.3973C36.1194 24.2964 36.3312 24.246 36.6136 24.246H40.0327C40.2344 24.246 40.3957 24.3166 40.5168 24.4578C40.6378 24.5788 40.6983 24.7301 40.6983 24.9116C40.6983 24.9923 40.6781 25.0831 40.6378 25.184C40.5974 25.2848 40.5268 25.3655 40.426 25.426L34.5864 31.2959L41.1824 38.8299C41.364 38.9913 41.4547 39.1526 41.4547 39.314C41.4547 39.4956 41.3841 39.6569 41.2429 39.7981C41.1219 39.9192 40.9706 39.9797 40.7891 39.9797H37.2793C36.9767 39.9797 36.7548 39.9292 36.6136 39.8284C36.4926 39.7275 36.3514 39.6065 36.19 39.4653L30.895 33.5349V39.2232C30.895 39.4451 30.8244 39.6267 30.6832 39.7679C30.542 39.9091 30.3705 39.9797 30.1688 39.9797H27.2036Z"/>
</mask>
<path d="M27.2036 39.9797C26.9818 39.9797 26.8002 39.9091 26.659 39.7679C26.5178 39.6267 26.4472 39.4451 26.4472 39.2232V19.2536C26.4472 19.0317 26.5178 18.8501 26.659 18.7089C26.8002 18.5677 26.9818 18.4971 27.2036 18.4971H30.1688C30.3705 18.4971 30.542 18.5677 30.6832 18.7089C30.8244 18.8501 30.895 19.0317 30.895 19.2536V29.4805L35.5546 24.7604C35.716 24.6192 35.8572 24.4981 35.9782 24.3973C36.1194 24.2964 36.3312 24.246 36.6136 24.246H40.0327C40.2344 24.246 40.3957 24.3166 40.5168 24.4578C40.6378 24.5788 40.6983 24.7301 40.6983 24.9116C40.6983 24.9923 40.6781 25.0831 40.6378 25.184C40.5974 25.2848 40.5268 25.3655 40.426 25.426L34.5864 31.2959L41.1824 38.8299C41.364 38.9913 41.4547 39.1526 41.4547 39.314C41.4547 39.4956 41.3841 39.6569 41.2429 39.7981C41.1219 39.9192 40.9706 39.9797 40.7891 39.9797H37.2793C36.9767 39.9797 36.7548 39.9292 36.6136 39.8284C36.4926 39.7275 36.3514 39.6065 36.19 39.4653L30.895 33.5349V39.2232C30.895 39.4451 30.8244 39.6267 30.6832 39.7679C30.542 39.9091 30.3705 39.9797 30.1688 39.9797H27.2036Z" fill="#F5F5FA"/>
<path d="M26.659 39.7679L25.3898 41.0371H25.3898L26.659 39.7679ZM26.659 18.7089L27.9282 19.9781L27.9282 19.9781L26.659 18.7089ZM30.6832 18.7089L29.414 19.9781L29.414 19.9781L30.6832 18.7089ZM30.895 29.4805H29.1001V33.8537L32.1724 30.7415L30.895 29.4805ZM35.5546 24.7604L34.3726 23.4095L34.3233 23.4527L34.2772 23.4994L35.5546 24.7604ZM35.9782 24.3973L34.9349 22.9367L34.8805 22.9755L34.8291 23.0184L35.9782 24.3973ZM40.5168 24.4578L39.1539 25.6259L39.1988 25.6782L39.2476 25.727L40.5168 24.4578ZM40.6378 25.184L38.9712 24.5173L38.9712 24.5173L40.6378 25.184ZM40.426 25.426L39.5025 23.8869L39.311 24.0018L39.1535 24.1601L40.426 25.426ZM34.5864 31.2959L33.3139 30.03L32.1323 31.2177L33.2359 32.4782L34.5864 31.2959ZM41.1824 38.8299L39.8319 40.0123L39.906 40.0968L39.9899 40.1715L41.1824 38.8299ZM41.2429 39.7981L42.5121 41.0673L42.5121 41.0673L41.2429 39.7981ZM36.6136 39.8284L35.4645 41.2073L35.5159 41.2501L35.5703 41.289L36.6136 39.8284ZM36.19 39.4653L34.8511 40.6608L34.9248 40.7433L35.008 40.8161L36.19 39.4653ZM30.895 33.5349L32.2339 32.3395L29.1001 28.8296V33.5349H30.895ZM30.6832 39.7679L29.414 38.4987L30.6832 39.7679ZM27.2036 39.9797V38.1847C27.2846 38.1847 27.4082 38.1981 27.5516 38.2538C27.6987 38.3111 27.8274 38.3978 27.9282 38.4987L26.659 39.7679L25.3898 41.0371C25.9065 41.5538 26.5637 41.7746 27.2036 41.7746V39.9797ZM26.659 39.7679L27.9282 38.4987C28.0291 38.5995 28.1158 38.7281 28.173 38.8753C28.2288 39.0187 28.2421 39.1423 28.2421 39.2232H26.4472H24.6523C24.6523 39.8632 24.8731 40.5204 25.3898 41.0371L26.659 39.7679ZM26.4472 39.2232H28.2421V19.2536H26.4472H24.6523V39.2232H26.4472ZM26.4472 19.2536H28.2421C28.2421 19.3345 28.2288 19.4581 28.173 19.6016C28.1158 19.7487 28.0291 19.8773 27.9282 19.9781L26.659 18.7089L25.3898 17.4397C24.8731 17.9564 24.6523 18.6136 24.6523 19.2536H26.4472ZM26.659 18.7089L27.9282 19.9781C27.8274 20.079 27.6988 20.1658 27.5516 20.223C27.4082 20.2787 27.2846 20.2921 27.2036 20.2921V18.4971V16.7022C26.5637 16.7022 25.9065 16.923 25.3898 17.4397L26.659 18.7089ZM27.2036 18.4971V20.2921H30.1688V18.4971V16.7022H27.2036V18.4971ZM30.1688 18.4971V20.2921C30.056 20.2921 29.9147 20.2714 29.7653 20.2098C29.6155 20.1481 29.4979 20.0621 29.414 19.9781L30.6832 18.7089L31.9524 17.4397C31.4708 16.9581 30.8412 16.7022 30.1688 16.7022V18.4971ZM30.6832 18.7089L29.414 19.9781C29.3132 19.8773 29.2264 19.7487 29.1692 19.6016C29.1134 19.4581 29.1001 19.3345 29.1001 19.2536H30.895H32.6899C32.6899 18.6136 32.4691 17.9564 31.9524 17.4397L30.6832 18.7089ZM30.895 19.2536H29.1001V29.4805H30.895H32.6899V19.2536H30.895ZM30.895 29.4805L32.1724 30.7415L36.832 26.0213L35.5546 24.7604L34.2772 23.4994L29.6176 28.2195L30.895 29.4805ZM35.5546 24.7604L36.7366 26.1112C36.8907 25.9763 37.0205 25.8652 37.1273 25.7762L35.9782 24.3973L34.8291 23.0184C34.6939 23.1311 34.5413 23.262 34.3726 23.4095L35.5546 24.7604ZM35.9782 24.3973L37.0215 25.8579C36.8619 25.9718 36.7231 26.0146 36.6587 26.0299C36.5951 26.0451 36.5735 26.0409 36.6136 26.0409V24.246V22.4511C36.1717 22.4511 35.518 22.5202 34.9349 22.9367L35.9782 24.3973ZM36.6136 24.246V26.0409H40.0326V24.246V22.4511H36.6136V24.246ZM40.0326 24.246V26.0409C39.9217 26.0409 39.7623 26.0207 39.5855 25.9434C39.4048 25.8643 39.2592 25.7487 39.1539 25.6259L40.5168 24.4578L41.8796 23.2897C41.3862 22.714 40.7082 22.4511 40.0326 22.4511V24.246ZM40.5168 24.4578L39.2476 25.727C39.145 25.6245 39.0509 25.49 38.9864 25.3286C38.9227 25.1694 38.9034 25.0232 38.9034 24.9116H40.6983H42.4932C42.4932 24.2861 42.2656 23.6682 41.786 23.1886L40.5168 24.4578ZM40.6983 24.9116H38.9034C38.9034 24.6998 38.9544 24.5595 38.9712 24.5173L40.6378 25.184L42.3043 25.8506C42.4019 25.6067 42.4932 25.2848 42.4932 24.9116H40.6983ZM40.6378 25.184L38.9712 24.5173C39.0889 24.2232 39.2966 24.0104 39.5025 23.8869L40.426 25.426L41.3495 26.9651C41.7571 26.7205 42.106 26.3464 42.3043 25.8506L40.6378 25.184ZM40.426 25.426L39.1535 24.1601L33.3139 30.03L34.5864 31.2959L35.8589 32.5618L41.6985 26.6919L40.426 25.426ZM34.5864 31.2959L33.2359 32.4782L39.8319 40.0123L41.1824 38.8299L42.5329 37.6476L35.9369 30.1135L34.5864 31.2959ZM41.1824 38.8299L39.9899 40.1715C39.9829 40.1652 39.6598 39.8781 39.6598 39.314H41.4547H43.2497C43.2497 38.4271 42.745 37.8173 42.3749 37.4884L41.1824 38.8299ZM41.4547 39.314H39.6598C39.6598 39.1649 39.6903 39.005 39.7573 38.8518C39.8229 38.7019 39.9071 38.5956 39.9737 38.5289L41.2429 39.7981L42.5121 41.0673C42.953 40.6265 43.2497 40.0214 43.2497 39.314H41.4547ZM41.2429 39.7981L39.9737 38.5289C40.0763 38.4264 40.2107 38.3323 40.3721 38.2677C40.5314 38.204 40.6775 38.1847 40.7891 38.1847V39.9797V41.7746C41.4146 41.7746 42.0325 41.547 42.5121 41.0673L41.2429 39.7981ZM40.7891 39.9797V38.1847H37.2793V39.9797V41.7746H40.7891V39.9797ZM37.2793 39.9797V38.1847C37.2209 38.1847 37.2295 38.1792 37.2837 38.1916C37.3362 38.2035 37.4835 38.244 37.6569 38.3678L36.6136 39.8284L35.5703 41.289C36.169 41.7166 36.8495 41.7746 37.2793 41.7746V39.9797ZM36.6136 39.8284L37.7627 38.4495C37.6559 38.3605 37.5261 38.2493 37.372 38.1145L36.19 39.4653L35.008 40.8161C35.1767 40.9637 35.3293 41.0946 35.4645 41.2073L36.6136 39.8284ZM36.19 39.4653L37.5289 38.2699L32.2339 32.3395L30.895 33.5349L29.5561 34.7304L34.8511 40.6608L36.19 39.4653ZM30.895 33.5349H29.1001V39.2232H30.895H32.6899V33.5349H30.895ZM30.895 39.2232H29.1001C29.1001 39.1423 29.1134 39.0187 29.1692 38.8753C29.2264 38.7281 29.3131 38.5995 29.414 38.4987L30.6832 39.7679L31.9524 41.0371C32.4691 40.5204 32.6899 39.8632 32.6899 39.2232H30.895ZM30.6832 39.7679L29.414 38.4987C29.4979 38.4147 29.6155 38.3287 29.7653 38.267C29.9147 38.2055 30.056 38.1847 30.1688 38.1847V39.9797V41.7746C30.8412 41.7746 31.4708 41.5187 31.9524 41.0371L30.6832 39.7679ZM30.1688 39.9797V38.1847H27.2036V39.9797V41.7746H30.1688V39.9797Z" fill="#F5F5FA" mask="url(#path-2-inside-1_578_36)"/>
<path d="M80.2372 37.5C80.0836 37.5 79.958 37.4511 79.8603 37.3534C79.7625 37.2557 79.7137 37.13 79.7137 36.9765V23.3649C79.7137 23.2114 79.7625 23.0857 79.8603 22.988C79.958 22.8903 80.0836 22.8414 80.2372 22.8414H82.4569C82.6105 22.8414 82.7361 22.8903 82.8339 22.988C82.9316 23.0857 82.9805 23.2114 82.9805 23.3649V28.1394L87.2943 23.2393C87.3501 23.1555 87.4409 23.0718 87.5665 22.988C87.7061 22.8903 87.8876 22.8414 88.111 22.8414H90.6448C90.7704 22.8414 90.8751 22.8903 90.9589 22.988C91.0427 23.0718 91.0846 23.1695 91.0846 23.2812C91.0846 23.3789 91.0566 23.4627 91.0008 23.5325L85.619 29.8566L91.3987 36.809C91.4545 36.8648 91.4824 36.9486 91.4824 37.0602C91.4824 37.1719 91.4406 37.2766 91.3568 37.3744C91.273 37.4581 91.1683 37.5 91.0427 37.5H88.4251C88.1738 37.5 87.9853 37.4442 87.8597 37.3325C87.734 37.2208 87.6503 37.144 87.6084 37.1021L82.9805 31.7413V36.9765C82.9805 37.13 82.9316 37.2557 82.8339 37.3534C82.7361 37.4511 82.6105 37.5 82.4569 37.5H80.2372ZM97.7472 37.7094C96.5885 37.7094 95.6182 37.5209 94.8364 37.144C94.0546 36.7531 93.4543 36.2017 93.0355 35.4897C92.6306 34.7777 92.4073 33.947 92.3654 32.9977C92.3514 32.7185 92.3444 32.4044 92.3444 32.0554C92.3444 31.6924 92.3514 31.3783 92.3654 31.113C92.4073 30.1498 92.6446 29.3191 93.0774 28.6211C93.5101 27.9091 94.1174 27.3646 94.8992 26.9877C95.681 26.5968 96.6303 26.4014 97.7472 26.4014C98.8501 26.4014 99.7924 26.5968 100.574 26.9877C101.356 27.3646 101.963 27.9091 102.396 28.6211C102.829 29.3191 103.066 30.1498 103.108 31.113C103.136 31.3783 103.15 31.6924 103.15 32.0554C103.15 32.4044 103.136 32.7185 103.108 32.9977C103.066 33.947 102.836 34.7777 102.417 35.4897C102.012 36.2017 101.419 36.7531 100.637 37.144C99.8552 37.5209 98.8919 37.7094 97.7472 37.7094ZM97.7472 35.4059C98.4312 35.4059 98.9478 35.1965 99.2968 34.7777C99.6458 34.3449 99.8343 33.7167 99.8622 32.893C99.8762 32.6836 99.8831 32.4044 99.8831 32.0554C99.8831 31.7064 99.8762 31.4272 99.8622 31.2177C99.8343 30.408 99.6458 29.7868 99.2968 29.354C98.9478 28.9212 98.4312 28.7048 97.7472 28.7048C97.0631 28.7048 96.5396 28.9212 96.1766 29.354C95.8276 29.7868 95.6391 30.408 95.6112 31.2177C95.5973 31.4272 95.5903 31.7064 95.5903 32.0554C95.5903 32.4044 95.5973 32.6836 95.6112 32.893C95.6391 33.7167 95.8276 34.3449 96.1766 34.7777C96.5396 35.1965 97.0631 35.4059 97.7472 35.4059ZM110.785 42.107C109.752 42.107 108.893 41.9674 108.209 41.6882C107.525 41.4229 106.98 41.0948 106.576 40.7039C106.185 40.327 105.905 39.9501 105.738 39.5731C105.57 39.1962 105.48 38.903 105.466 38.6936C105.452 38.5401 105.501 38.4144 105.612 38.3167C105.724 38.219 105.85 38.1701 105.989 38.1701H108.23C108.356 38.1701 108.46 38.198 108.544 38.2539C108.642 38.3237 108.718 38.4354 108.774 38.5889C108.844 38.7565 108.942 38.931 109.067 39.1124C109.193 39.3079 109.382 39.4684 109.633 39.5941C109.898 39.7197 110.247 39.7826 110.68 39.7826C111.169 39.7826 111.573 39.7127 111.895 39.5731C112.216 39.4335 112.453 39.1962 112.606 38.8612C112.774 38.5261 112.858 38.0724 112.858 37.5V36.097C112.523 36.4599 112.097 36.7601 111.58 36.9974C111.078 37.2347 110.457 37.3534 109.717 37.3534C108.991 37.3534 108.349 37.2417 107.79 37.0184C107.246 36.781 106.792 36.453 106.429 36.0341C106.066 35.6014 105.787 35.0848 105.591 34.4845C105.396 33.8842 105.284 33.2071 105.256 32.4533C105.242 32.0763 105.242 31.7064 105.256 31.3434C105.284 30.6174 105.396 29.9543 105.591 29.354C105.787 28.7537 106.066 28.2372 106.429 27.8044C106.792 27.3577 107.246 27.0156 107.79 26.7783C108.349 26.527 108.991 26.4014 109.717 26.4014C110.484 26.4014 111.141 26.5479 111.685 26.8411C112.23 27.1343 112.676 27.4973 113.025 27.93V27.1343C113.025 26.9947 113.074 26.876 113.172 26.7783C113.27 26.6666 113.388 26.6108 113.528 26.6108H115.58C115.72 26.6108 115.838 26.6666 115.936 26.7783C116.048 26.876 116.104 26.9947 116.104 27.1343L116.125 37.2068C116.125 38.2539 115.922 39.1404 115.517 39.8663C115.112 40.5923 114.512 41.1437 113.716 41.5206C112.935 41.9115 111.957 42.107 110.785 42.107ZM110.68 34.9033C111.183 34.9033 111.587 34.7917 111.895 34.5683C112.216 34.331 112.453 34.0378 112.606 33.6888C112.76 33.3258 112.844 32.9489 112.858 32.558C112.872 32.4044 112.879 32.188 112.879 31.9088C112.879 31.6156 112.872 31.3923 112.858 31.2387C112.844 30.8478 112.76 30.4778 112.606 30.1288C112.453 29.7659 112.216 29.4727 111.895 29.2493C111.587 29.0259 111.183 28.9143 110.68 28.9143C110.149 28.9143 109.731 29.0329 109.423 29.2703C109.116 29.4936 108.893 29.7938 108.753 30.1707C108.614 30.5476 108.53 30.9595 108.502 31.4062C108.488 31.7413 108.488 32.0693 108.502 32.3904C108.53 32.8511 108.614 33.27 108.753 33.6469C108.893 34.0238 109.116 34.331 109.423 34.5683C109.731 34.7917 110.149 34.9033 110.68 34.9033ZM119.601 37.5C119.461 37.5 119.342 37.4511 119.245 37.3534C119.147 37.2557 119.098 37.13 119.098 36.9765V27.1343C119.098 26.9807 119.147 26.8551 119.245 26.7574C119.342 26.6596 119.461 26.6108 119.601 26.6108H121.653C121.807 26.6108 121.932 26.6596 122.03 26.7574C122.128 26.8551 122.176 26.9807 122.176 27.1343V27.951C122.539 27.5042 123.007 27.1343 123.579 26.8411C124.152 26.5479 124.85 26.4014 125.674 26.4014C126.497 26.4014 127.216 26.5898 127.83 26.9668C128.459 27.3297 128.947 27.8672 129.296 28.5792C129.659 29.2772 129.841 30.1288 129.841 31.134V36.9765C129.841 37.13 129.785 37.2557 129.673 37.3534C129.576 37.4511 129.457 37.5 129.317 37.5H127.098C126.944 37.5 126.818 37.4511 126.721 37.3534C126.623 37.2557 126.574 37.13 126.574 36.9765V31.2596C126.574 30.5197 126.393 29.9473 126.03 29.5425C125.681 29.1237 125.164 28.9143 124.48 28.9143C123.824 28.9143 123.3 29.1237 122.909 29.5425C122.518 29.9473 122.323 30.5197 122.323 31.2596V36.9765C122.323 37.13 122.274 37.2557 122.176 37.3534C122.079 37.4511 121.96 37.5 121.82 37.5H119.601ZM133.187 37.5C133.048 37.5 132.929 37.4511 132.831 37.3534C132.734 37.2557 132.685 37.13 132.685 36.9765V27.1343C132.685 26.9807 132.734 26.8551 132.831 26.7574C132.929 26.6596 133.048 26.6108 133.187 26.6108H135.281C135.435 26.6108 135.561 26.6596 135.658 26.7574C135.756 26.8551 135.805 26.9807 135.805 27.1343V36.9765C135.805 37.13 135.756 37.2557 135.658 37.3534C135.561 37.4511 135.435 37.5 135.281 37.5H133.187ZM133.125 24.9355C132.985 24.9355 132.866 24.8866 132.769 24.7889C132.671 24.6912 132.622 24.5655 132.622 24.412V22.7367C132.622 22.5831 132.671 22.4575 132.769 22.3598C132.866 22.2481 132.985 22.1923 133.125 22.1923H135.323C135.477 22.1923 135.603 22.2481 135.7 22.3598C135.812 22.4575 135.868 22.5831 135.868 22.7367V24.412C135.868 24.5655 135.812 24.6912 135.7 24.7889C135.603 24.8866 135.477 24.9355 135.323 24.9355H133.125ZM144.002 37.5C143.136 37.5 142.396 37.3604 141.782 37.0812C141.168 36.788 140.7 36.3413 140.379 35.741C140.072 35.1407 139.918 34.3868 139.918 33.4794V29.0818H138.285C138.131 29.0818 138.005 29.0329 137.908 28.9352C137.81 28.8375 137.761 28.7118 137.761 28.5583V27.1343C137.761 26.9807 137.81 26.8551 137.908 26.7574C138.005 26.6596 138.131 26.6108 138.285 26.6108H139.918V23.1555C139.918 23.002 139.967 22.8763 140.065 22.7786C140.176 22.6809 140.302 22.632 140.442 22.632H142.494C142.647 22.632 142.773 22.6809 142.871 22.7786C142.968 22.8763 143.017 23.002 143.017 23.1555V26.6108H145.635C145.775 26.6108 145.893 26.6596 145.991 26.7574C146.089 26.8551 146.138 26.9807 146.138 27.1343V28.5583C146.138 28.7118 146.089 28.8375 145.991 28.9352C145.893 29.0329 145.775 29.0818 145.635 29.0818H143.017V33.2281C143.017 33.7586 143.108 34.1774 143.29 34.4845C143.485 34.7777 143.82 34.9243 144.295 34.9243H145.823C145.963 34.9243 146.082 34.9731 146.179 35.0709C146.277 35.1686 146.326 35.2873 146.326 35.4269V36.9765C146.326 37.13 146.277 37.2557 146.179 37.3534C146.082 37.4511 145.963 37.5 145.823 37.5H144.002ZM148.991 37.5C148.851 37.5 148.732 37.4511 148.635 37.3534C148.537 37.2557 148.488 37.13 148.488 36.9765V27.1343C148.488 26.9807 148.537 26.8551 148.635 26.7574C148.732 26.6596 148.851 26.6108 148.991 26.6108H151.085C151.238 26.6108 151.364 26.6596 151.462 26.7574C151.559 26.8551 151.608 26.9807 151.608 27.1343V36.9765C151.608 37.13 151.559 37.2557 151.462 37.3534C151.364 37.4511 151.238 37.5 151.085 37.5H148.991ZM148.928 24.9355C148.788 24.9355 148.669 24.8866 148.572 24.7889C148.474 24.6912 148.425 24.5655 148.425 24.412V22.7367C148.425 22.5831 148.474 22.4575 148.572 22.3598C148.669 22.2481 148.788 22.1923 148.928 22.1923H151.127C151.28 22.1923 151.406 22.2481 151.503 22.3598C151.615 22.4575 151.671 22.5831 151.671 22.7367V24.412C151.671 24.5655 151.615 24.6912 151.503 24.7889C151.406 24.8866 151.28 24.9355 151.127 24.9355H148.928ZM155.072 37.5C154.932 37.5 154.814 37.4511 154.716 37.3534C154.618 37.2557 154.569 37.13 154.569 36.9765V27.1343C154.569 26.9807 154.618 26.8551 154.716 26.7574C154.814 26.6596 154.932 26.6108 155.072 26.6108H157.166C157.32 26.6108 157.445 26.6596 157.543 26.7574C157.641 26.8551 157.69 26.9807 157.69 27.1343V36.9765C157.69 37.13 157.641 37.2557 157.543 37.3534C157.445 37.4511 157.32 37.5 157.166 37.5H155.072ZM155.009 24.9355C154.87 24.9355 154.751 24.8866 154.653 24.7889C154.556 24.6912 154.507 24.5655 154.507 24.412V22.7367C154.507 22.5831 154.556 22.4575 154.653 22.3598C154.751 22.2481 154.87 22.1923 155.009 22.1923H157.208C157.362 22.1923 157.487 22.2481 157.585 22.3598C157.697 22.4575 157.752 22.5831 157.752 22.7367V24.412C157.752 24.5655 157.697 24.6912 157.585 24.7889C157.487 24.8866 157.362 24.9355 157.208 24.9355H155.009ZM164.504 37.5C164.295 37.5 164.134 37.4511 164.022 37.3534C163.925 37.2417 163.841 37.1161 163.771 36.9765L159.834 27.2599C159.806 27.2041 159.792 27.1413 159.792 27.0715C159.792 26.9458 159.834 26.8411 159.918 26.7574C160.016 26.6596 160.127 26.6108 160.253 26.6108H162.284C162.466 26.6108 162.598 26.6596 162.682 26.7574C162.78 26.8551 162.843 26.9458 162.871 27.0296L165.446 33.9401L168.022 27.0296C168.064 26.9458 168.127 26.8551 168.211 26.7574C168.308 26.6596 168.441 26.6108 168.609 26.6108H170.64C170.765 26.6108 170.87 26.6596 170.954 26.7574C171.052 26.8411 171.1 26.9458 171.1 27.0715C171.1 27.1413 171.093 27.2041 171.08 27.2599L167.122 36.9765C167.066 37.1161 166.982 37.2417 166.87 37.3534C166.759 37.4511 166.598 37.5 166.389 37.5H164.504ZM172.611 37.5C172.457 37.5 172.332 37.4511 172.234 37.3534C172.136 37.2557 172.087 37.13 172.087 36.9765V34.6311C172.087 34.4775 172.136 34.3519 172.234 34.2542C172.332 34.1564 172.457 34.1076 172.611 34.1076H174.956C175.11 34.1076 175.236 34.1564 175.333 34.2542C175.431 34.3519 175.48 34.4775 175.48 34.6311V36.9765C175.48 37.13 175.431 37.2557 175.333 37.3534C175.236 37.4511 175.11 37.5 174.956 37.5H172.611ZM181.539 37.7094C180.8 37.7094 180.136 37.5698 179.55 37.2906C178.964 36.9974 178.496 36.6065 178.147 36.1179C177.798 35.6293 177.624 35.0848 177.624 34.4845C177.624 33.4933 178.021 32.7115 178.817 32.1391C179.627 31.5668 180.688 31.1759 182 30.9665L184.743 30.5686V30.1916C184.743 29.6472 184.618 29.2284 184.366 28.9352C184.115 28.642 183.675 28.4954 183.047 28.4954C182.587 28.4954 182.217 28.5862 181.937 28.7677C181.658 28.9492 181.442 29.1865 181.288 29.4797C181.176 29.6611 181.016 29.7519 180.807 29.7519H178.817C178.664 29.7519 178.545 29.71 178.461 29.6262C178.377 29.5285 178.343 29.4168 178.356 29.2912C178.356 29.0539 178.447 28.7747 178.629 28.4536C178.81 28.1325 179.089 27.8184 179.466 27.5112C179.843 27.1901 180.325 26.9249 180.911 26.7155C181.498 26.5061 182.217 26.4014 183.068 26.4014C183.948 26.4014 184.702 26.5061 185.33 26.7155C185.958 26.9249 186.461 27.2181 186.838 27.595C187.214 27.9719 187.494 28.4117 187.675 28.9143C187.857 29.4029 187.947 29.9334 187.947 30.5058V36.9765C187.947 37.13 187.899 37.2557 187.801 37.3534C187.703 37.4511 187.577 37.5 187.424 37.5H185.372C185.232 37.5 185.113 37.4511 185.016 37.3534C184.918 37.2557 184.869 37.13 184.869 36.9765V36.2017C184.688 36.4669 184.443 36.7182 184.136 36.9555C183.829 37.1789 183.459 37.3604 183.026 37.5C182.607 37.6396 182.112 37.7094 181.539 37.7094ZM182.377 35.5316C182.838 35.5316 183.25 35.4338 183.613 35.2384C183.976 35.0429 184.262 34.7428 184.471 34.3379C184.681 33.9331 184.785 33.4235 184.785 32.8093V32.4533L182.838 32.7674C182.084 32.893 181.532 33.0815 181.183 33.3328C180.834 33.5841 180.66 33.8912 180.66 34.2542C180.66 34.5194 180.737 34.7498 180.89 34.9452C181.058 35.1407 181.274 35.2873 181.539 35.385C181.805 35.4827 182.084 35.5316 182.377 35.5316ZM191.32 37.5C191.181 37.5 191.062 37.4511 190.964 37.3534C190.867 37.2557 190.818 37.13 190.818 36.9765V27.1343C190.818 26.9807 190.867 26.8551 190.964 26.7574C191.062 26.6596 191.181 26.6108 191.32 26.6108H193.415C193.568 26.6108 193.694 26.6596 193.791 26.7574C193.889 26.8551 193.938 26.9807 193.938 27.1343V36.9765C193.938 37.13 193.889 37.2557 193.791 37.3534C193.694 37.4511 193.568 37.5 193.415 37.5H191.32ZM191.258 24.9355C191.118 24.9355 190.999 24.8866 190.902 24.7889C190.804 24.6912 190.755 24.5655 190.755 24.412V22.7367C190.755 22.5831 190.804 22.4575 190.902 22.3598C190.999 22.2481 191.118 22.1923 191.258 22.1923H193.456C193.61 22.1923 193.736 22.2481 193.833 22.3598C193.945 22.4575 194.001 22.5831 194.001 22.7367V24.412C194.001 24.5655 193.945 24.6912 193.833 24.7889C193.736 24.8866 193.61 24.9355 193.456 24.9355H191.258Z" fill="#F5F5FA"/>
</svg>
