<svg width="70" height="64" viewBox="0 0 70 64" fill="none" xmlns="http://www.w3.org/2000/svg">
<path d="M10.9489 53.6077C21.0979 66.2486 31.2242 58.8747 35.0187 53.6077C45.6095 69.4089 58.7488 54.797 58.6355 55.1368C66.5078 50.4361 65.6583 41.0913 65.6016 40.6949C69.6227 30.6139 63.0025 27.0035 63.0025 24.6222C63.0025 14.6212 54.9064 12.0812 54.7476 11.9225C47.3851 -2.34955 35.0187 5.24139 35.0187 5.01485C20.1804 -2.06453 15.3664 12.0942 15.2531 12.0942C7.43749 14.4624 7.49413 22.9681 7.43749 22.9681C0.0183055 30.444 4.10728 38.7507 4.26593 39.3923C2.73678 48.5672 9.98092 53.3555 10.9489 53.6077Z" stroke="url(#paint0_linear_244_41)" stroke-width="4.76242" stroke-linecap="round"/>
<mask id="path-2-inside-1_244_41" fill="white">
<path d="M28.6855 42.8749C28.45 42.8749 28.2573 42.8 28.1075 42.6502C27.9576 42.5003 27.8827 42.3076 27.8827 42.0721V20.8782C27.8827 20.6427 27.9576 20.4501 28.1075 20.3002C28.2573 20.1503 28.45 20.0754 28.6855 20.0754H31.8325C32.0465 20.0754 32.2285 20.1503 32.3784 20.3002C32.5282 20.4501 32.6031 20.6427 32.6031 20.8782V31.7321L37.5484 26.7226C37.7197 26.5727 37.8695 26.4443 37.998 26.3373C38.1478 26.2302 38.3726 26.1767 38.6723 26.1767H42.301C42.515 26.1767 42.6863 26.2516 42.8148 26.4015C42.9432 26.5299 43.0074 26.6905 43.0074 26.8832C43.0074 26.9688 42.986 27.0651 42.9432 27.1722C42.9004 27.2792 42.8255 27.3648 42.7184 27.4291L36.5208 33.6588L43.5212 41.6547C43.7139 41.8259 43.8102 41.9972 43.8102 42.1685C43.8102 42.3611 43.7353 42.5324 43.5854 42.6823C43.457 42.8107 43.2964 42.8749 43.1038 42.8749H39.3788C39.0577 42.8749 38.8222 42.8214 38.6723 42.7144C38.5439 42.6073 38.394 42.4789 38.2227 42.329L32.6031 36.0351V42.0721C32.6031 42.3076 32.5282 42.5003 32.3784 42.6502C32.2285 42.8 32.0465 42.8749 31.8325 42.8749H28.6855Z"/>
</mask>
<path d="M28.6855 42.8749C28.45 42.8749 28.2573 42.8 28.1075 42.6502C27.9576 42.5003 27.8827 42.3076 27.8827 42.0721V20.8782C27.8827 20.6427 27.9576 20.4501 28.1075 20.3002C28.2573 20.1503 28.45 20.0754 28.6855 20.0754H31.8325C32.0465 20.0754 32.2285 20.1503 32.3784 20.3002C32.5282 20.4501 32.6031 20.6427 32.6031 20.8782V31.7321L37.5484 26.7226C37.7197 26.5727 37.8695 26.4443 37.998 26.3373C38.1478 26.2302 38.3726 26.1767 38.6723 26.1767H42.301C42.515 26.1767 42.6863 26.2516 42.8148 26.4015C42.9432 26.5299 43.0074 26.6905 43.0074 26.8832C43.0074 26.9688 42.986 27.0651 42.9432 27.1722C42.9004 27.2792 42.8255 27.3648 42.7184 27.4291L36.5208 33.6588L43.5212 41.6547C43.7139 41.8259 43.8102 41.9972 43.8102 42.1685C43.8102 42.3611 43.7353 42.5324 43.5854 42.6823C43.457 42.8107 43.2964 42.8749 43.1038 42.8749H39.3788C39.0577 42.8749 38.8222 42.8214 38.6723 42.7144C38.5439 42.6073 38.394 42.4789 38.2227 42.329L32.6031 36.0351V42.0721C32.6031 42.3076 32.5282 42.5003 32.3784 42.6502C32.2285 42.8 32.0465 42.8749 31.8325 42.8749H28.6855Z" fill="#00CEC9"/>
<path d="M28.1075 42.6502L26.7604 43.9972H26.7604L28.1075 42.6502ZM28.1075 20.3002L29.4545 21.6472L29.4545 21.6472L28.1075 20.3002ZM32.3784 20.3002L31.0313 21.6472L31.0313 21.6472L32.3784 20.3002ZM32.6031 31.7321H30.6982V36.3734L33.9588 33.0704L32.6031 31.7321ZM37.5484 26.7226L36.294 25.289L36.2416 25.3348L36.1927 25.3843L37.5484 26.7226ZM37.998 26.3373L36.8907 24.7871L36.833 24.8284L36.7784 24.8738L37.998 26.3373ZM42.8148 26.4015L41.3684 27.6412L41.416 27.6968L41.4678 27.7485L42.8148 26.4015ZM42.9432 27.1722L41.1745 26.4647L41.1745 26.4647L42.9432 27.1722ZM42.7184 27.4291L41.7383 25.7956L41.5351 25.9175L41.3679 26.0855L42.7184 27.4291ZM36.5208 33.6588L35.1703 32.3153L33.9163 33.5758L35.0875 34.9136L36.5208 33.6588ZM43.5212 41.6547L42.0879 42.9095L42.1665 42.9992L42.2556 43.0785L43.5212 41.6547ZM43.5854 42.6823L44.9325 44.0293L44.9325 44.0293L43.5854 42.6823ZM38.6723 42.7144L37.4528 44.1778L37.5073 44.2233L37.5651 44.2645L38.6723 42.7144ZM38.2227 42.329L36.8018 43.5978L36.88 43.6854L36.9683 43.7627L38.2227 42.329ZM32.6031 36.0351L34.0241 34.7663L30.6982 31.0413V36.0351H32.6031ZM32.3784 42.6502L31.0313 41.3031L32.3784 42.6502ZM28.6855 42.8749V40.97C28.7714 40.97 28.9026 40.9841 29.0548 41.0433C29.2109 41.104 29.3474 41.1961 29.4545 41.3031L28.1075 42.6502L26.7604 43.9972C27.3088 44.5456 28.0063 44.7799 28.6855 44.7799V42.8749ZM28.1075 42.6502L29.4545 41.3031C29.5615 41.4102 29.6536 41.5467 29.7143 41.7028C29.7735 41.855 29.7876 41.9862 29.7876 42.0721H27.8827H25.9777C25.9777 42.7513 26.2121 43.4488 26.7604 43.9972L28.1075 42.6502ZM27.8827 42.0721H29.7876V20.8782H27.8827H25.9777V42.0721H27.8827ZM27.8827 20.8782H29.7876C29.7876 20.9641 29.7735 21.0953 29.7143 21.2475C29.6536 21.4037 29.5615 21.5402 29.4545 21.6472L28.1075 20.3002L26.7604 18.9532C26.2121 19.5016 25.9777 20.199 25.9777 20.8782H27.8827ZM28.1075 20.3002L29.4545 21.6472C29.3474 21.7542 29.2109 21.8463 29.0548 21.907C28.9026 21.9662 28.7714 21.9804 28.6855 21.9804V20.0754V18.1704C28.0063 18.1704 27.3088 18.4048 26.7604 18.9532L28.1075 20.3002ZM28.6855 20.0754V21.9804H31.8325V20.0754V18.1704H28.6855V20.0754ZM31.8325 20.0754V21.9804C31.7127 21.9804 31.5628 21.9584 31.4042 21.8931C31.2452 21.8276 31.1204 21.7363 31.0313 21.6472L32.3784 20.3002L33.7254 18.9532C33.2142 18.442 32.546 18.1704 31.8325 18.1704V20.0754ZM32.3784 20.3002L31.0313 21.6472C30.9243 21.5402 30.8322 21.4037 30.7715 21.2475C30.7123 21.0953 30.6982 20.9641 30.6982 20.8782H32.6031H34.5081C34.5081 20.199 34.2738 19.5016 33.7254 18.9532L32.3784 20.3002ZM32.6031 20.8782H30.6982V31.7321H32.6031H34.5081V20.8782H32.6031ZM32.6031 31.7321L33.9588 33.0704L38.9041 28.0609L37.5484 26.7226L36.1927 25.3843L31.2475 30.3938L32.6031 31.7321ZM37.5484 26.7226L38.8028 28.1562C38.9664 28.0131 39.1041 27.8952 39.2175 27.8007L37.998 26.3373L36.7784 24.8738C36.6349 24.9934 36.4729 25.1324 36.294 25.289L37.5484 26.7226ZM37.998 26.3373L39.1052 27.8874C38.9359 28.0083 38.7885 28.0537 38.7202 28.07C38.6527 28.0861 38.6297 28.0817 38.6723 28.0817V26.1767V24.2717C38.2034 24.2717 37.5095 24.3451 36.8907 24.7871L37.998 26.3373ZM38.6723 26.1767V28.0817H42.301V26.1767V24.2717H38.6723V26.1767ZM42.301 26.1767V28.0817C42.1832 28.0817 42.0141 28.0602 41.8264 27.9781C41.6347 27.8942 41.4801 27.7716 41.3684 27.6412L42.8148 26.4015L44.2611 25.1617C43.7375 24.5508 43.0179 24.2717 42.301 24.2717V26.1767ZM42.8148 26.4015L41.4678 27.7485C41.3589 27.6397 41.2591 27.497 41.1905 27.3257C41.1229 27.1567 41.1025 27.0015 41.1025 26.8832H43.0074H44.9124C44.9124 26.2193 44.6708 25.5635 44.1618 25.0545L42.8148 26.4015ZM43.0074 26.8832H41.1025C41.1025 26.6584 41.1566 26.5094 41.1745 26.4647L42.9432 27.1722L44.7119 27.8797C44.8154 27.6209 44.9124 27.2792 44.9124 26.8832H43.0074ZM42.9432 27.1722L41.1745 26.4647C41.2994 26.1525 41.5197 25.9267 41.7383 25.7956L42.7184 27.4291L43.6985 29.0626C44.1312 28.803 44.5014 28.4059 44.7119 27.8796L42.9432 27.1722ZM42.7184 27.4291L41.3679 26.0855L35.1703 32.3153L36.5208 33.6588L37.8713 35.0023L44.0689 28.7726L42.7184 27.4291ZM36.5208 33.6588L35.0875 34.9136L42.0879 42.9095L43.5212 41.6547L44.9545 40.3998L37.9541 32.404L36.5208 33.6588ZM43.5212 41.6547L42.2556 43.0785C42.2482 43.0719 41.9053 42.7672 41.9053 42.1685H43.8102H45.7152C45.7152 41.2272 45.1796 40.58 44.7868 40.2309L43.5212 41.6547ZM43.8102 42.1685H41.9053C41.9053 42.0103 41.9377 41.8405 42.0088 41.6779C42.0784 41.5188 42.1677 41.406 42.2384 41.3353L43.5854 42.6823L44.9325 44.0293C45.4003 43.5614 45.7152 42.9193 45.7152 42.1685H43.8102ZM43.5854 42.6823L42.2384 41.3352C42.3473 41.2264 42.4899 41.1266 42.6612 41.0581C42.8302 40.9904 42.9854 40.97 43.1038 40.97V42.8749V44.7799C43.7677 44.7799 44.4234 44.5383 44.9325 44.0293L43.5854 42.6823ZM43.1038 42.8749V40.97H39.3788V42.8749V44.7799H43.1038V42.8749ZM39.3788 42.8749V40.97C39.3168 40.97 39.3259 40.9641 39.3835 40.9772C39.4393 40.9899 39.5956 41.0328 39.7795 41.1642L38.6723 42.7144L37.5651 44.2645C38.2004 44.7183 38.9227 44.7799 39.3788 44.7799V42.8749ZM38.6723 42.7144L39.8918 41.2509C39.7785 41.1565 39.6407 41.0385 39.4772 40.8954L38.2227 42.329L36.9683 43.7627C37.1473 43.9193 37.3093 44.0582 37.4528 44.1778L38.6723 42.7144ZM38.2227 42.329L39.6437 41.0603L34.0241 34.7663L32.6031 36.0351L31.1822 37.3038L36.8018 43.5978L38.2227 42.329ZM32.6031 36.0351H30.6982V42.0721H32.6031H34.5081V36.0351H32.6031ZM32.6031 42.0721H30.6982C30.6982 41.9862 30.7123 41.855 30.7715 41.7028C30.8322 41.5467 30.9243 41.4102 31.0313 41.3031L32.3784 42.6502L33.7254 43.9972C34.2738 43.4488 34.5081 42.7513 34.5081 42.0721H32.6031ZM32.3784 42.6502L31.0313 41.3031C31.1204 41.214 31.2452 41.1227 31.4042 41.0573C31.5628 40.992 31.7127 40.97 31.8325 40.97V42.8749V44.7799C32.546 44.7799 33.2142 44.5083 33.7254 43.9972L32.3784 42.6502ZM31.8325 42.8749V40.97H28.6855V42.8749V44.7799H31.8325V42.8749Z" fill="#00CEC9" mask="url(#path-2-inside-1_244_41)"/>
<defs>
<linearGradient id="paint0_linear_244_41" x1="34.9488" y1="3.03262" x2="35.0669" y2="50.8155" gradientUnits="userSpaceOnUse">
<stop stop-color="#5F27CD"/>
<stop offset="1" stop-color="#00CEC9"/>
</linearGradient>
</defs>
</svg>
