<svg width="25" height="25" viewBox="0 0 25 25" fill="none" xmlns="http://www.w3.org/2000/svg">
<path d="M9.04906 16.6C9.12788 16.6592 9.21761 16.7024 9.31312 16.7269C9.40862 16.7514 9.50802 16.7569 9.60564 16.7429C9.70325 16.729 9.79716 16.696 9.88198 16.6457C9.96681 16.5954 10.0409 16.5289 10.1 16.45C10.5541 15.8445 11.1429 15.3531 11.8198 15.0147C12.4968 14.6762 13.2432 14.5 14 14.5C14.7568 14.5 15.5032 14.6762 16.1802 15.0147C16.8571 15.3531 17.4459 15.8445 17.9 16.45C17.9591 16.5288 18.0331 16.5952 18.1179 16.6454C18.2026 16.6955 18.2964 16.7285 18.3939 16.7425C18.4914 16.7564 18.5907 16.751 18.6861 16.7265C18.7815 16.7021 18.8712 16.6591 18.95 16.6C19.0288 16.5409 19.0952 16.4669 19.1454 16.3821C19.1955 16.2974 19.2285 16.2036 19.2425 16.1061C19.2564 16.0086 19.251 15.9093 19.2265 15.8139C19.2021 15.7185 19.1591 15.6288 19.1 15.55C18.4359 14.6596 17.5503 13.9586 16.5312 13.5166C17.0897 13.0067 17.481 12.3399 17.6537 11.6037C17.8264 10.8675 17.7725 10.0962 17.4991 9.39121C17.2256 8.68617 16.7454 8.08028 16.1215 7.65304C15.4976 7.2258 14.759 6.99718 14.0028 6.99718C13.2466 6.99718 12.5081 7.2258 11.8841 7.65304C11.2602 8.08028 10.78 8.68617 10.5065 9.39121C10.2331 10.0962 10.1792 10.8675 10.3519 11.6037C10.5247 12.3399 10.9159 13.0067 11.4744 13.5166C10.4533 13.9577 9.56566 14.6588 8.9 15.55C8.78055 15.709 8.72915 15.909 8.75711 16.1059C8.78506 16.3028 8.89008 16.4805 9.04906 16.6ZM11.75 10.75C11.75 10.305 11.882 9.86998 12.1292 9.49997C12.3764 9.12996 12.7278 8.84157 13.139 8.67127C13.5501 8.50097 14.0025 8.45642 14.439 8.54323C14.8754 8.63005 15.2763 8.84434 15.591 9.15901C15.9057 9.47368 16.12 9.87459 16.2068 10.311C16.2936 10.7475 16.249 11.1999 16.0787 11.611C15.9084 12.0222 15.62 12.3736 15.25 12.6208C14.88 12.868 14.445 13 14 13C13.4033 13 12.831 12.7629 12.409 12.341C11.9871 11.919 11.75 11.3467 11.75 10.75ZM20.75 2.5H7.25C6.85218 2.5 6.47064 2.65804 6.18934 2.93934C5.90804 3.22064 5.75 3.60218 5.75 4V6.25H4.25C4.05109 6.25 3.86032 6.32902 3.71967 6.46967C3.57902 6.61032 3.5 6.80109 3.5 7C3.5 7.19891 3.57902 7.38968 3.71967 7.53033C3.86032 7.67098 4.05109 7.75 4.25 7.75H5.75V11.5H4.25C4.05109 11.5 3.86032 11.579 3.71967 11.7197C3.57902 11.8603 3.5 12.0511 3.5 12.25C3.5 12.4489 3.57902 12.6397 3.71967 12.7803C3.86032 12.921 4.05109 13 4.25 13H5.75V16.75H4.25C4.05109 16.75 3.86032 16.829 3.71967 16.9697C3.57902 17.1103 3.5 17.3011 3.5 17.5C3.5 17.6989 3.57902 17.8897 3.71967 18.0303C3.86032 18.171 4.05109 18.25 4.25 18.25H5.75V20.5C5.75 20.8978 5.90804 21.2794 6.18934 21.5607C6.47064 21.842 6.85218 22 7.25 22H20.75C21.1478 22 21.5294 21.842 21.8107 21.5607C22.092 21.2794 22.25 20.8978 22.25 20.5V4C22.25 3.60218 22.092 3.22064 21.8107 2.93934C21.5294 2.65804 21.1478 2.5 20.75 2.5ZM20.75 20.5H7.25V4H20.75V20.5Z" fill="#F4F3FF"/>
</svg>
