<svg width="30" height="30" viewBox="0 0 30 30" fill="none" xmlns="http://www.w3.org/2000/svg">
<path d="M19.414 23.7118C19.5011 23.7989 19.5702 23.9023 19.6174 24.0161C19.6645 24.1299 19.6888 24.2519 19.6888 24.375C19.6888 24.4982 19.6645 24.6202 19.6174 24.734C19.5702 24.8478 19.5011 24.9512 19.414 25.0383C19.3269 25.1254 19.2235 25.1945 19.1097 25.2417C18.9959 25.2888 18.8739 25.3131 18.7507 25.3131C18.6276 25.3131 18.5056 25.2888 18.3918 25.2417C18.278 25.1945 18.1746 25.1254 18.0875 25.0383L8.71246 15.6633C8.62529 15.5762 8.55614 15.4729 8.50896 15.359C8.46178 15.2452 8.4375 15.1232 8.4375 15C8.4375 14.8768 8.46178 14.7548 8.50896 14.641C8.55614 14.5272 8.62529 14.4238 8.71246 14.3368L18.0875 4.96175C18.2634 4.78584 18.502 4.68701 18.7507 4.68701C18.9995 4.68701 19.2381 4.78584 19.414 4.96175C19.5899 5.13766 19.6888 5.37625 19.6888 5.62503C19.6888 5.87381 19.5899 6.1124 19.414 6.28831L10.7011 15L19.414 23.7118Z" fill="#0F0F1A"/>
</svg>
