<svg width="30" height="30" viewBox="0 0 30 30" fill="none" xmlns="http://www.w3.org/2000/svg">
<path d="M21.2888 15.6633L11.9138 25.0383C11.8267 25.1254 11.7233 25.1945 11.6095 25.2417C11.4957 25.2888 11.3737 25.3131 11.2505 25.3131C11.1273 25.3131 11.0054 25.2888 10.8916 25.2417C10.7777 25.1945 10.6743 25.1254 10.5872 25.0383C10.5001 24.9512 10.431 24.8478 10.3839 24.734C10.3368 24.6202 10.3125 24.4982 10.3125 24.375C10.3125 24.2519 10.3368 24.1299 10.3839 24.0161C10.431 23.9023 10.5001 23.7989 10.5872 23.7118L19.3001 15L10.5872 6.28831C10.4113 6.1124 10.3125 5.87381 10.3125 5.62503C10.3125 5.37625 10.4113 5.13766 10.5872 4.96175C10.7632 4.78584 11.0017 4.68701 11.2505 4.68701C11.4993 4.68701 11.7379 4.78584 11.9138 4.96175L21.2888 14.3368C21.376 14.4238 21.4451 14.5272 21.4923 14.641C21.5395 14.7548 21.5638 14.8768 21.5638 15C21.5638 15.1232 21.5395 15.2452 21.4923 15.359C21.4451 15.4729 21.376 15.5762 21.2888 15.6633Z" fill="#0F0F1A"/>
</svg>
