<svg width="24" height="25" viewBox="0 0 24 25" fill="none" xmlns="http://www.w3.org/2000/svg">
<path d="M21.75 20C21.75 20.1989 21.671 20.3897 21.5303 20.5303C21.3897 20.671 21.1989 20.75 21 20.75H3C2.80109 20.75 2.61032 20.671 2.46967 20.5303C2.32902 20.3897 2.25 20.1989 2.25 20V5C2.25 4.80109 2.32902 4.61032 2.46967 4.46967C2.61032 4.32902 2.80109 4.25 3 4.25C3.19891 4.25 3.38968 4.32902 3.53033 4.46967C3.67098 4.61032 3.75 4.80109 3.75 5V19.25H21C21.1989 19.25 21.3897 19.329 21.5303 19.4697C21.671 19.6103 21.75 19.8011 21.75 20ZM12.375 15.5C12.5975 15.5 12.815 15.434 13 15.3104C13.185 15.1868 13.3292 15.0111 13.4144 14.8055C13.4995 14.6 13.5218 14.3738 13.4784 14.1555C13.435 13.9373 13.3278 13.7368 13.1705 13.5795C13.0132 13.4222 12.8127 13.315 12.5945 13.2716C12.3762 13.2282 12.15 13.2505 11.9445 13.3356C11.7389 13.4208 11.5632 13.565 11.4396 13.75C11.316 13.935 11.25 14.1525 11.25 14.375C11.25 14.6734 11.3685 14.9595 11.5795 15.1705C11.7905 15.3815 12.0766 15.5 12.375 15.5ZM10.125 10.25C10.3475 10.25 10.565 10.184 10.75 10.0604C10.935 9.93679 11.0792 9.76109 11.1644 9.55552C11.2495 9.34995 11.2718 9.12375 11.2284 8.90552C11.185 8.68729 11.0778 8.48684 10.9205 8.3295C10.7632 8.17217 10.5627 8.06502 10.3445 8.02162C10.1262 7.97821 9.90005 8.00049 9.69448 8.08564C9.48891 8.17078 9.31321 8.31498 9.1896 8.49998C9.06598 8.68499 9 8.9025 9 9.125C9 9.42337 9.11853 9.70952 9.3295 9.9205C9.54048 10.1315 9.82663 10.25 10.125 10.25ZM7.125 17C7.3475 17 7.56501 16.934 7.75002 16.8104C7.93502 16.6868 8.07922 16.5111 8.16436 16.3055C8.24951 16.1 8.27179 15.8738 8.22838 15.6555C8.18498 15.4373 8.07783 15.2368 7.9205 15.0795C7.76316 14.9222 7.56271 14.815 7.34448 14.7716C7.12625 14.7282 6.90005 14.7505 6.69448 14.8356C6.48891 14.9208 6.31321 15.065 6.1896 15.25C6.06598 15.435 6 15.6525 6 15.875C6 16.1734 6.11853 16.4595 6.3295 16.6705C6.54048 16.8815 6.82663 17 7.125 17ZM16.125 12.5C16.3475 12.5 16.565 12.434 16.75 12.3104C16.935 12.1868 17.0792 12.0111 17.1644 11.8055C17.2495 11.6 17.2718 11.3738 17.2284 11.1555C17.185 10.9373 17.0778 10.7368 16.9205 10.5795C16.7632 10.4222 16.5627 10.315 16.3445 10.2716C16.1262 10.2282 15.9 10.2505 15.6945 10.3356C15.4889 10.4208 15.3132 10.565 15.1896 10.75C15.066 10.935 15 11.1525 15 11.375C15 11.6734 15.1185 11.9595 15.3295 12.1705C15.5405 12.3815 15.8266 12.5 16.125 12.5ZM18.375 8.75C18.5975 8.75 18.815 8.68402 19 8.5604C19.185 8.43679 19.3292 8.26109 19.4144 8.05552C19.4995 7.84995 19.5218 7.62375 19.4784 7.40552C19.435 7.18729 19.3278 6.98684 19.1705 6.8295C19.0132 6.67217 18.8127 6.56502 18.5945 6.52162C18.3762 6.47821 18.15 6.50049 17.9445 6.58564C17.7389 6.67078 17.5632 6.81498 17.4396 6.99998C17.316 7.18499 17.25 7.4025 17.25 7.625C17.25 7.92337 17.3685 8.20952 17.5795 8.4205C17.7905 8.63147 18.0766 8.75 18.375 8.75ZM16.5 15.875C16.5 16.0975 16.566 16.315 16.6896 16.5C16.8132 16.685 16.9889 16.8292 17.1945 16.9144C17.4 16.9995 17.6262 17.0218 17.8445 16.9784C18.0627 16.935 18.2632 16.8278 18.4205 16.6705C18.5778 16.5132 18.685 16.3127 18.7284 16.0945C18.7718 15.8762 18.7495 15.65 18.6644 15.4445C18.5792 15.2389 18.435 15.0632 18.25 14.9396C18.065 14.816 17.8475 14.75 17.625 14.75C17.3266 14.75 17.0405 14.8685 16.8295 15.0795C16.6185 15.2905 16.5 15.5766 16.5 15.875Z" fill="#F4F3FF"/>
</svg>
