<svg width="24" height="25" viewBox="0 0 24 25" fill="none" xmlns="http://www.w3.org/2000/svg">
<path d="M21.5 20.75C21.5 20.9489 21.421 21.1397 21.2803 21.2803C21.1397 21.421 20.9489 21.5 20.75 21.5H2.75C2.55109 21.5 2.36032 21.421 2.21967 21.2803C2.07902 21.1397 2 20.9489 2 20.75V5.75C2 5.55109 2.07902 5.36032 2.21967 5.21967C2.36032 5.07902 2.55109 5 2.75 5C2.94891 5 3.13968 5.07902 3.28033 5.21967C3.42098 5.36032 3.5 5.55109 3.5 5.75V20H20.75C20.9489 20 21.1397 20.079 21.2803 20.2197C21.421 20.3603 21.5 20.5511 21.5 20.75ZM12.125 16.25C12.3475 16.25 12.565 16.184 12.75 16.0604C12.935 15.9368 13.0792 15.7611 13.1644 15.5555C13.2495 15.35 13.2718 15.1238 13.2284 14.9055C13.185 14.6873 13.0778 14.4868 12.9205 14.3295C12.7632 14.1722 12.5627 14.065 12.3445 14.0216C12.1262 13.9782 11.9 14.0005 11.6945 14.0856C11.4889 14.1708 11.3132 14.315 11.1896 14.5C11.066 14.685 11 14.9025 11 15.125C11 15.4234 11.1185 15.7095 11.3295 15.9205C11.5405 16.1315 11.8266 16.25 12.125 16.25ZM9.875 11C10.0975 11 10.315 10.934 10.5 10.8104C10.685 10.6868 10.8292 10.5111 10.9144 10.3055C10.9995 10.1 11.0218 9.87375 10.9784 9.65552C10.935 9.43729 10.8278 9.23684 10.6705 9.0795C10.5132 8.92217 10.3127 8.81502 10.0945 8.77162C9.87625 8.72821 9.65005 8.75049 9.44448 8.83564C9.23891 8.92078 9.06321 9.06498 8.9396 9.24998C8.81598 9.43499 8.75 9.6525 8.75 9.875C8.75 10.1734 8.86853 10.4595 9.0795 10.6705C9.29048 10.8815 9.57663 11 9.875 11ZM6.875 17.75C7.0975 17.75 7.31501 17.684 7.50002 17.5604C7.68502 17.4368 7.82922 17.2611 7.91436 17.0555C7.99951 16.85 8.02179 16.6238 7.97838 16.4055C7.93498 16.1873 7.82783 15.9868 7.6705 15.8295C7.51316 15.6722 7.31271 15.565 7.09448 15.5216C6.87625 15.4782 6.65005 15.5005 6.44448 15.5856C6.23891 15.6708 6.06321 15.815 5.9396 16C5.81598 16.185 5.75 16.4025 5.75 16.625C5.75 16.9234 5.86853 17.2095 6.0795 17.4205C6.29048 17.6315 6.57663 17.75 6.875 17.75ZM15.875 13.25C16.0975 13.25 16.315 13.184 16.5 13.0604C16.685 12.9368 16.8292 12.7611 16.9144 12.5555C16.9995 12.35 17.0218 12.1238 16.9784 11.9055C16.935 11.6873 16.8278 11.4868 16.6705 11.3295C16.5132 11.1722 16.3127 11.065 16.0945 11.0216C15.8762 10.9782 15.65 11.0005 15.4445 11.0856C15.2389 11.1708 15.0632 11.315 14.9396 11.5C14.816 11.685 14.75 11.9025 14.75 12.125C14.75 12.4234 14.8685 12.7095 15.0795 12.9205C15.2905 13.1315 15.5766 13.25 15.875 13.25ZM18.125 9.5C18.3475 9.5 18.565 9.43402 18.75 9.3104C18.935 9.18679 19.0792 9.01109 19.1644 8.80552C19.2495 8.59995 19.2718 8.37375 19.2284 8.15552C19.185 7.93729 19.0778 7.73684 18.9205 7.5795C18.7632 7.42217 18.5627 7.31502 18.3445 7.27162C18.1262 7.22821 17.9 7.25049 17.6945 7.33564C17.4889 7.42078 17.3132 7.56498 17.1896 7.74998C17.066 7.93499 17 8.1525 17 8.375C17 8.67337 17.1185 8.95952 17.3295 9.1705C17.5405 9.38147 17.8266 9.5 18.125 9.5ZM16.25 16.625C16.25 16.8475 16.316 17.065 16.4396 17.25C16.5632 17.435 16.7389 17.5792 16.9445 17.6644C17.15 17.7495 17.3762 17.7718 17.5945 17.7284C17.8127 17.685 18.0132 17.5778 18.1705 17.4205C18.3278 17.2632 18.435 17.0627 18.4784 16.8445C18.5218 16.6262 18.4995 16.4 18.4144 16.1945C18.3292 15.9889 18.185 15.8132 18 15.6896C17.815 15.566 17.5975 15.5 17.375 15.5C17.0766 15.5 16.7905 15.6185 16.5795 15.8295C16.3685 16.0405 16.25 16.3266 16.25 16.625Z" fill="#0F0F1A"/>
</svg>
