<svg width="30" height="30" viewBox="0 0 30 30" fill="none" xmlns="http://www.w3.org/2000/svg">
<rect x="0.5" y="0.5" width="29" height="29" rx="7.5" fill="#FAFAFB"/>
<rect x="0.5" y="0.5" width="29" height="29" rx="7.5" stroke="url(#paint0_linear_493_173)"/>
<path d="M24.75 15.0001C24.7469 17.383 23.8726 19.6826 22.2917 21.4657C20.7109 23.2488 18.5326 24.3922 16.1671 24.6807C16.1145 24.6867 16.0611 24.6814 16.0107 24.6653C15.9602 24.6491 15.9137 24.6224 15.8743 24.587C15.8348 24.5516 15.8034 24.5082 15.782 24.4597C15.7605 24.4112 15.7496 24.3587 15.75 24.3057V17.2501H18C18.1028 17.2503 18.2045 17.2294 18.2989 17.1886C18.3933 17.1479 18.4783 17.0882 18.5487 17.0132C18.619 16.9382 18.6732 16.8495 18.7078 16.7527C18.7424 16.6559 18.7568 16.553 18.75 16.4504C18.7334 16.2576 18.6444 16.0781 18.5009 15.9482C18.3574 15.8183 18.1701 15.7475 17.9765 15.7501H15.75V13.5001C15.75 13.1023 15.908 12.7207 16.1893 12.4394C16.4706 12.1581 16.8521 12.0001 17.25 12.0001H18.75C18.8528 12.0003 18.9545 11.9794 19.0489 11.9386C19.1433 11.8979 19.2283 11.8382 19.2987 11.7632C19.369 11.6882 19.4232 11.5995 19.4578 11.5027C19.4924 11.4059 19.5068 11.303 19.5 11.2004C19.4834 11.0072 19.3941 10.8275 19.2502 10.6975C19.1063 10.5676 18.9185 10.497 18.7246 10.5001H17.25C16.4543 10.5001 15.6912 10.8162 15.1286 11.3788C14.566 11.9414 14.25 12.7044 14.25 13.5001V15.7501H12C11.8971 15.7499 11.7954 15.7708 11.701 15.8115C11.6066 15.8523 11.5216 15.912 11.4513 15.987C11.3809 16.062 11.3268 16.1507 11.2921 16.2475C11.2575 16.3443 11.2431 16.4472 11.25 16.5498C11.2665 16.743 11.3558 16.9227 11.4997 17.0527C11.6436 17.1826 11.8314 17.2532 12.0253 17.2501H14.25V24.3076C14.2503 24.3605 14.2394 24.4129 14.218 24.4613C14.1967 24.5097 14.1653 24.5531 14.126 24.5885C14.0866 24.6239 14.0403 24.6506 13.9899 24.6668C13.9395 24.683 13.8863 24.6884 13.8337 24.6826C11.405 24.3868 9.1758 23.19 7.5874 21.329C5.99901 19.4681 5.16716 17.0786 5.25652 14.6335C5.44402 9.57104 9.54464 5.45541 14.6109 5.25854C15.9225 5.20773 17.231 5.42199 18.4579 5.8885C19.6848 6.35502 20.8051 7.0642 21.7516 7.97363C22.6981 8.88306 23.4515 9.97405 23.9667 11.1814C24.4819 12.3887 24.7483 13.6875 24.75 15.0001Z" fill="#5F27CD"/>
<defs>
<linearGradient id="paint0_linear_493_173" x1="15" y1="-6.04901e-08" x2="15.0675" y2="24.7431" gradientUnits="userSpaceOnUse">
<stop stop-color="#5F27CD"/>
<stop offset="1" stop-color="#00CEC9"/>
</linearGradient>
</defs>
</svg>
