<svg width="25" height="25" viewBox="0 0 25 25" fill="none" xmlns="http://www.w3.org/2000/svg">
<g clip-path="url(#clip0_493_68)">
<path d="M22.0934 13.7244C21.8144 13.5096 21.4895 13.3622 21.1442 13.2934C20.7988 13.2246 20.4422 13.2364 20.1022 13.3278L16.1797 14.2297C16.2709 13.8442 16.2738 13.443 16.1879 13.0563C16.1021 12.6695 15.9298 12.3072 15.6841 11.9965C15.4383 11.6858 15.1254 11.4347 14.7688 11.2622C14.4122 11.0896 14.0212 11 13.625 11H8.93188C8.53775 10.999 8.14733 11.0761 7.78319 11.2269C7.41904 11.3777 7.08838 11.5991 6.81031 11.8784L4.68969 14H2C1.60218 14 1.22064 14.158 0.93934 14.4393C0.658035 14.7206 0.5 15.1022 0.5 15.5L0.5 19.25C0.5 19.6478 0.658035 20.0294 0.93934 20.3107C1.22064 20.592 1.60218 20.75 2 20.75H11.75C11.8113 20.75 11.8724 20.7425 11.9319 20.7275L17.9319 19.2275C17.9701 19.2184 18.0075 19.2058 18.0434 19.19L21.6875 17.6394L21.7288 17.6206C22.079 17.4456 22.3789 17.1843 22.6002 16.8614C22.8215 16.5385 22.957 16.1645 22.9939 15.7747C23.0307 15.3849 22.9678 14.9922 22.8109 14.6335C22.654 14.2748 22.4084 13.9619 22.0972 13.7244H22.0934ZM2 15.5H4.25V19.25H2V15.5ZM21.0716 16.2697L17.5091 17.7866L11.6562 19.25H5.75V15.0603L7.87156 12.9397C8.01035 12.7998 8.17555 12.6889 8.35758 12.6134C8.53961 12.5379 8.73482 12.4994 8.93188 12.5H13.625C13.9234 12.5 14.2095 12.6185 14.4205 12.8295C14.6315 13.0405 14.75 13.3266 14.75 13.625C14.75 13.9234 14.6315 14.2095 14.4205 14.4205C14.2095 14.6315 13.9234 14.75 13.625 14.75H11C10.8011 14.75 10.6103 14.829 10.4697 14.9697C10.329 15.1103 10.25 15.3011 10.25 15.5C10.25 15.6989 10.329 15.8897 10.4697 16.0303C10.6103 16.171 10.8011 16.25 11 16.25H14C14.0565 16.2498 14.1127 16.2436 14.1678 16.2313L20.4491 14.7866L20.4781 14.7791C20.6699 14.7258 20.8745 14.7454 21.0527 14.834C21.2309 14.9226 21.37 15.0739 21.4433 15.2589C21.5167 15.4439 21.5189 15.6495 21.4498 15.8361C21.3806 16.0227 21.2449 16.1771 21.0687 16.2697H21.0716ZM15.875 9.5C16.0603 9.50021 16.2453 9.48516 16.4281 9.455C16.6338 10.0658 17.01 10.605 17.5124 11.0088C18.0147 11.4125 18.6222 11.664 19.263 11.7335C19.9037 11.8029 20.551 11.6875 21.1282 11.4008C21.7054 11.114 22.1884 10.668 22.5202 10.1155C22.852 9.56291 23.0186 8.92691 23.0004 8.28266C22.9821 7.6384 22.7798 7.01284 22.4173 6.47993C22.0548 5.94703 21.5473 5.52905 20.9548 5.27543C20.3623 5.02181 19.7096 4.94315 19.0737 5.04875C18.8757 4.46023 18.5192 3.93775 18.0434 3.53879C17.5676 3.13984 16.9909 2.87988 16.3769 2.78754C15.7629 2.69519 15.1353 2.77403 14.5631 3.01537C13.991 3.25672 13.4966 3.65123 13.1342 4.15547C12.7719 4.65971 12.5556 5.25414 12.5093 5.87335C12.463 6.49256 12.5885 7.11254 12.8718 7.66506C13.1552 8.21759 13.5854 8.68123 14.1153 9.00497C14.6452 9.32872 15.2541 9.50001 15.875 9.5ZM21.5 8.375C21.5 8.74584 21.39 9.10835 21.184 9.4167C20.978 9.72504 20.6851 9.96536 20.3425 10.1073C19.9999 10.2492 19.6229 10.2863 19.2592 10.214C18.8955 10.1416 18.5614 9.96305 18.2992 9.70083C18.037 9.4386 17.8584 9.10451 17.786 8.7408C17.7137 8.37708 17.7508 8.00008 17.8927 7.65747C18.0346 7.31486 18.275 7.02202 18.5833 6.816C18.8916 6.60997 19.2542 6.5 19.625 6.5C20.1223 6.5 20.5992 6.69755 20.9508 7.04918C21.3025 7.40081 21.5 7.87772 21.5 8.375ZM15.875 4.25C16.284 4.25021 16.6818 4.38416 17.0076 4.63145C17.3334 4.87874 17.5695 5.22579 17.6797 5.61969C17.2956 5.88997 16.9721 6.23744 16.7299 6.63989C16.4878 7.04234 16.3323 7.4909 16.2734 7.95688C16.1425 7.98515 16.009 7.99961 15.875 8C15.3777 8 14.9008 7.80246 14.5492 7.45083C14.1975 7.0992 14 6.62228 14 6.125C14 5.62772 14.1975 5.15081 14.5492 4.79918C14.9008 4.44755 15.3777 4.25 15.875 4.25Z" fill="#F4F3FF"/>
</g>
<defs>
<clipPath id="clip0_493_68">
<rect width="24" height="24" fill="white" transform="translate(0.5 0.5)"/>
</clipPath>
</defs>
</svg>
