<svg width="25" height="24" viewBox="0 0 25 24" fill="none" xmlns="http://www.w3.org/2000/svg">
<path d="M19.4272 5.12437C18.53 4.21817 17.4629 3.49783 16.2869 3.0046C15.111 2.51137 13.8493 2.25494 12.5741 2.25H12.5C9.91414 2.25 7.43419 3.27723 5.60571 5.10571C3.77723 6.93419 2.75 9.41414 2.75 12V17.25C2.75 17.8467 2.98705 18.419 3.40901 18.841C3.83097 19.2629 4.40326 19.5 5 19.5H6.5C7.09674 19.5 7.66903 19.2629 8.09099 18.841C8.51295 18.419 8.75 17.8467 8.75 17.25V13.5C8.75 12.9033 8.51295 12.331 8.09099 11.909C7.66903 11.4871 7.09674 11.25 6.5 11.25H4.28375C4.42839 9.68619 5.01578 8.196 5.97709 6.9541C6.93839 5.71219 8.23377 4.77003 9.71141 4.23803C11.189 3.70603 12.7877 3.60624 14.32 3.95035C15.8524 4.29446 17.2548 5.06822 18.3631 6.18094C19.7177 7.54247 20.5509 9.33662 20.7172 11.25H18.5C17.9033 11.25 17.331 11.4871 16.909 11.909C16.4871 12.331 16.25 12.9033 16.25 13.5V17.25C16.25 17.8467 16.4871 18.419 16.909 18.841C17.331 19.2629 17.9033 19.5 18.5 19.5H20.75C20.75 20.0967 20.5129 20.669 20.091 21.091C19.669 21.5129 19.0967 21.75 18.5 21.75H13.25C13.0511 21.75 12.8603 21.829 12.7197 21.9697C12.579 22.1103 12.5 22.3011 12.5 22.5C12.5 22.6989 12.579 22.8897 12.7197 23.0303C12.8603 23.171 13.0511 23.25 13.25 23.25H18.5C19.4946 23.25 20.4484 22.8549 21.1517 22.1516C21.8549 21.4484 22.25 20.4946 22.25 19.5V12C22.2549 10.7246 22.0081 9.46077 21.5237 8.28093C21.0393 7.10108 20.3268 6.02841 19.4272 5.12437ZM6.5 12.75C6.69891 12.75 6.88968 12.829 7.03033 12.9697C7.17098 13.1103 7.25 13.3011 7.25 13.5V17.25C7.25 17.4489 7.17098 17.6397 7.03033 17.7803C6.88968 17.921 6.69891 18 6.5 18H5C4.80109 18 4.61032 17.921 4.46967 17.7803C4.32902 17.6397 4.25 17.4489 4.25 17.25V12.75H6.5ZM18.5 18C18.3011 18 18.1103 17.921 17.9697 17.7803C17.829 17.6397 17.75 17.4489 17.75 17.25V13.5C17.75 13.3011 17.829 13.1103 17.9697 12.9697C18.1103 12.829 18.3011 12.75 18.5 12.75H20.75V18H18.5Z" fill="#0F0F1A"/>
</svg>
