<svg width="25" height="25" viewBox="0 0 25 25" fill="none" xmlns="http://www.w3.org/2000/svg">
<path d="M19.2974 17.0753C20.2459 16.2786 21.0035 15.2794 21.5146 14.1511C22.0257 13.0228 22.2772 11.7943 22.2506 10.5559C22.1568 6.27063 18.7246 2.73719 14.4468 2.51219C13.3431 2.45212 12.2385 2.61446 11.1987 2.98958C10.159 3.3647 9.20516 3.94495 8.39399 4.69586C7.58282 5.44677 6.93083 6.35304 6.47674 7.36084C6.02264 8.36864 5.7757 9.45741 5.75057 10.5625L3.64589 14.6106C3.63745 14.6275 3.62901 14.6444 3.62151 14.6613C3.47062 15.013 3.45987 15.409 3.59145 15.7684C3.72303 16.1278 3.987 16.4233 4.32932 16.5944L4.35276 16.6047L6.50057 17.5881V20.5C6.50057 20.8978 6.65861 21.2794 6.93991 21.5607C7.22122 21.842 7.60275 22 8.00057 22H12.5006C12.6995 22 12.8903 21.921 13.0309 21.7803C13.1716 21.6397 13.2506 21.4489 13.2506 21.25C13.2506 21.0511 13.1716 20.8603 13.0309 20.7197C12.8903 20.579 12.6995 20.5 12.5006 20.5H8.00057V17.1072C8.00068 16.9634 7.95947 16.8227 7.88185 16.7017C7.80423 16.5807 7.69347 16.4845 7.56276 16.4247L5.00057 15.25L7.16339 11.0931C7.21976 10.9875 7.24968 10.8697 7.25057 10.75C7.25036 9.22032 7.76972 7.73593 8.72356 6.54005C9.67739 5.34418 11.0091 4.50775 12.5006 4.16782V5.62938C12.0002 5.8063 11.5784 6.15443 11.3099 6.61224C11.0413 7.07005 10.9432 7.60806 11.033 8.13118C11.1227 8.6543 11.3945 9.12885 11.8003 9.47096C12.2061 9.81307 12.7198 10.0007 13.2506 10.0007C13.7813 10.0007 14.295 9.81307 14.7008 9.47096C15.1066 9.12885 15.3784 8.6543 15.4682 8.13118C15.5579 7.60806 15.4599 7.07005 15.1913 6.61224C14.9227 6.15443 14.501 5.8063 14.0006 5.62938V4.00001C14.1224 4.00001 14.2443 4.00001 14.3662 4.00938C15.6962 4.08557 16.9742 4.5522 18.0404 5.35093C19.1066 6.14966 19.9137 7.24502 20.3606 8.50001H18.5006C18.3905 8.49996 18.2819 8.52413 18.1822 8.57079C18.0826 8.61745 17.9944 8.68547 17.924 8.77001L15.5324 11.6406C15.0337 11.4548 14.4852 11.4513 13.9841 11.6308C13.483 11.8103 13.0616 12.1613 12.7943 12.6216C12.527 13.0819 12.4311 13.6219 12.5235 14.1461C12.616 14.6703 12.8908 15.1449 13.2995 15.486C13.7081 15.827 14.2242 16.0126 14.7565 16.0099C15.2887 16.0071 15.8029 15.8163 16.208 15.471C16.6131 15.1257 16.8831 14.6483 16.9701 14.1232C17.0572 13.5981 16.9557 13.0591 16.6837 12.6016L18.8521 10H20.7074C20.7299 10.195 20.7437 10.3919 20.7487 10.5906C20.7721 11.6649 20.5396 12.7292 20.0705 13.6959C19.6013 14.6625 18.909 15.5037 18.0506 16.15C17.9448 16.2293 17.8619 16.3351 17.8102 16.4568C17.7585 16.5785 17.7399 16.7116 17.7562 16.8428L18.5062 22.8428C18.529 23.0239 18.6171 23.1905 18.754 23.3113C18.8908 23.4322 19.0671 23.4989 19.2496 23.4991C19.281 23.4991 19.3123 23.4972 19.3434 23.4934C19.4411 23.4813 19.5356 23.45 19.6212 23.4013C19.7069 23.3526 19.7821 23.2876 19.8426 23.2098C19.9031 23.1321 19.9477 23.0432 19.9738 22.9482C20 22.8532 20.0072 22.754 19.9949 22.6563L19.2974 17.0753ZM13.2506 8.50001C13.1022 8.50001 12.9572 8.45602 12.8339 8.37361C12.7106 8.2912 12.6144 8.17406 12.5577 8.03702C12.5009 7.89997 12.486 7.74917 12.515 7.60369C12.5439 7.4582 12.6154 7.32457 12.7202 7.21968C12.8251 7.11479 12.9588 7.04336 13.1043 7.01442C13.2497 6.98548 13.4005 7.00033 13.5376 7.0571C13.6746 7.11386 13.7918 7.20999 13.8742 7.33333C13.9566 7.45667 14.0006 7.60167 14.0006 7.75001C14.0006 7.94892 13.9216 8.13968 13.7809 8.28034C13.6403 8.42099 13.4495 8.50001 13.2506 8.50001ZM14.7506 14.5C14.6022 14.5 14.4572 14.456 14.3339 14.3736C14.2106 14.2912 14.1144 14.1741 14.0577 14.037C14.0009 13.9 13.986 13.7492 14.015 13.6037C14.0439 13.4582 14.1154 13.3246 14.2202 13.2197C14.3251 13.1148 14.4588 13.0434 14.6043 13.0144C14.7497 12.9855 14.9005 13.0003 15.0376 13.0571C15.1746 13.1139 15.2918 13.21 15.3742 13.3333C15.4566 13.4567 15.5006 13.6017 15.5006 13.75C15.5006 13.9489 15.4216 14.1397 15.2809 14.2803C15.1403 14.421 14.9495 14.5 14.7506 14.5Z" fill="#0F0F1A"/>
</svg>
