<svg width="30" height="30" viewBox="0 0 30 30" fill="none" xmlns="http://www.w3.org/2000/svg">
<rect x="0.5" y="0.5" width="29" height="29" rx="7.5" fill="#FAFAFB"/>
<rect x="0.5" y="0.5" width="29" height="29" rx="7.5" stroke="url(#paint0_linear_493_176)"/>
<path d="M19.5 5.25H10.5C9.10807 5.25149 7.77358 5.80509 6.78933 6.78933C5.80509 7.77358 5.25149 9.10807 5.25 10.5V19.5C5.25149 20.8919 5.80509 22.2264 6.78933 23.2107C7.77358 24.1949 9.10807 24.7485 10.5 24.75H19.5C20.8919 24.7485 22.2264 24.1949 23.2107 23.2107C24.1949 22.2264 24.7485 20.8919 24.75 19.5V10.5C24.7485 9.10807 24.1949 7.77358 23.2107 6.78933C22.2264 5.80509 20.8919 5.25149 19.5 5.25ZM15 19.5C14.11 19.5 13.24 19.2361 12.4999 18.7416C11.7599 18.2471 11.1831 17.5443 10.8425 16.7221C10.5019 15.8998 10.4128 14.995 10.5865 14.1221C10.7601 13.2492 11.1887 12.4474 11.818 11.818C12.4474 11.1887 13.2492 10.7601 14.1221 10.5865C14.995 10.4128 15.8998 10.5019 16.7221 10.8425C17.5443 11.1831 18.2471 11.7599 18.7416 12.4999C19.2361 13.24 19.5 14.11 19.5 15C19.4988 16.1931 19.0243 17.337 18.1806 18.1806C17.337 19.0243 16.1931 19.4988 15 19.5ZM20.625 10.5C20.4025 10.5 20.185 10.434 20 10.3104C19.815 10.1868 19.6708 10.0111 19.5856 9.80552C19.5005 9.59995 19.4782 9.37375 19.5216 9.15552C19.565 8.93729 19.6722 8.73684 19.8295 8.5795C19.9868 8.42217 20.1873 8.31502 20.4055 8.27162C20.6238 8.22821 20.85 8.25049 21.0555 8.33564C21.2611 8.42078 21.4368 8.56498 21.5604 8.74998C21.684 8.93499 21.75 9.1525 21.75 9.375C21.75 9.67337 21.6315 9.95952 21.4205 10.1705C21.2095 10.3815 20.9234 10.5 20.625 10.5ZM18 15C18 15.5933 17.8241 16.1734 17.4944 16.6667C17.1648 17.1601 16.6962 17.5446 16.1481 17.7716C15.5999 17.9987 14.9967 18.0581 14.4147 17.9424C13.8328 17.8266 13.2982 17.5409 12.8787 17.1213C12.4591 16.7018 12.1734 16.1672 12.0576 15.5853C11.9419 15.0033 12.0013 14.4001 12.2284 13.8519C12.4554 13.3038 12.8399 12.8352 13.3333 12.5056C13.8266 12.1759 14.4067 12 15 12C15.7956 12 16.5587 12.3161 17.1213 12.8787C17.6839 13.4413 18 14.2044 18 15Z" fill="#5F27CD"/>
<defs>
<linearGradient id="paint0_linear_493_176" x1="15" y1="-6.04901e-08" x2="15.0675" y2="24.7431" gradientUnits="userSpaceOnUse">
<stop stop-color="#5F27CD"/>
<stop offset="1" stop-color="#00CEC9"/>
</linearGradient>
</defs>
</svg>
