<svg width="30" height="30" viewBox="0 0 30 30" fill="none" xmlns="http://www.w3.org/2000/svg">
<rect x="0.5" y="0.5" width="29" height="29" rx="7.5" fill="#FAFAFB"/>
<rect x="0.5" y="0.5" width="29" height="29" rx="7.5" stroke="url(#paint0_linear_493_182)"/>
<path d="M23.25 5.25H6.75C6.35218 5.25 5.97064 5.40804 5.68934 5.68934C5.40804 5.97064 5.25 6.35218 5.25 6.75V23.25C5.25 23.6478 5.40804 24.0294 5.68934 24.3107C5.97064 24.592 6.35218 24.75 6.75 24.75H23.25C23.6478 24.75 24.0294 24.592 24.3107 24.3107C24.592 24.0294 24.75 23.6478 24.75 23.25V6.75C24.75 6.35218 24.592 5.97064 24.3107 5.68934C24.0294 5.40804 23.6478 5.25 23.25 5.25ZM12 19.5C12 19.6989 11.921 19.8897 11.7803 20.0303C11.6397 20.171 11.4489 20.25 11.25 20.25C11.0511 20.25 10.8603 20.171 10.7197 20.0303C10.579 19.8897 10.5 19.6989 10.5 19.5V13.5C10.5 13.3011 10.579 13.1103 10.7197 12.9697C10.8603 12.829 11.0511 12.75 11.25 12.75C11.4489 12.75 11.6397 12.829 11.7803 12.9697C11.921 13.1103 12 13.3011 12 13.5V19.5ZM11.25 12C11.0275 12 10.81 11.934 10.625 11.8104C10.44 11.6868 10.2958 11.5111 10.2106 11.3055C10.1255 11.1 10.1032 10.8738 10.1466 10.6555C10.19 10.4373 10.2972 10.2368 10.4545 10.0795C10.6118 9.92217 10.8123 9.81502 11.0305 9.77162C11.2488 9.72821 11.475 9.75049 11.6805 9.83564C11.8861 9.92078 12.0618 10.065 12.1854 10.25C12.309 10.435 12.375 10.6525 12.375 10.875C12.375 11.1734 12.2565 11.4595 12.0455 11.6705C11.8345 11.8815 11.5484 12 11.25 12ZM20.25 19.5C20.25 19.6989 20.171 19.8897 20.0303 20.0303C19.8897 20.171 19.6989 20.25 19.5 20.25C19.3011 20.25 19.1103 20.171 18.9697 20.0303C18.829 19.8897 18.75 19.6989 18.75 19.5V16.125C18.75 15.6277 18.5525 15.1508 18.2008 14.7992C17.8492 14.4475 17.3723 14.25 16.875 14.25C16.3777 14.25 15.9008 14.4475 15.5492 14.7992C15.1975 15.1508 15 15.6277 15 16.125V19.5C15 19.6989 14.921 19.8897 14.7803 20.0303C14.6397 20.171 14.4489 20.25 14.25 20.25C14.0511 20.25 13.8603 20.171 13.7197 20.0303C13.579 19.8897 13.5 19.6989 13.5 19.5V13.5C13.5009 13.3163 13.5693 13.1393 13.692 13.0026C13.8148 12.866 13.9834 12.7791 14.166 12.7585C14.3485 12.7379 14.5323 12.7851 14.6824 12.891C14.8325 12.9969 14.9385 13.1542 14.9803 13.3331C15.4877 12.9889 16.0792 12.7895 16.6914 12.7561C17.3036 12.7228 17.9133 12.8568 18.455 13.1438C18.9968 13.4308 19.4501 13.86 19.7664 14.3852C20.0826 14.9105 20.2498 15.5119 20.25 16.125V19.5Z" fill="#5F27CD"/>
<defs>
<linearGradient id="paint0_linear_493_182" x1="15" y1="-6.04901e-08" x2="15.0675" y2="24.7431" gradientUnits="userSpaceOnUse">
<stop stop-color="#5F27CD"/>
<stop offset="1" stop-color="#00CEC9"/>
</linearGradient>
</defs>
</svg>
