<svg width="24" height="24" viewBox="0 0 24 24" fill="none" xmlns="http://www.w3.org/2000/svg">
<path d="M22.9503 14.1C22.8715 14.1591 22.7818 14.2021 22.6864 14.2265C22.591 14.251 22.4917 14.2564 22.3942 14.2425C22.2967 14.2285 22.2029 14.1955 22.1182 14.1454C22.0334 14.0952 21.9594 14.0288 21.9003 13.95C21.4482 13.3424 20.8598 12.8494 20.1824 12.5107C19.5051 12.172 18.7576 11.9971 18.0003 12C17.8528 12 17.7086 11.9565 17.5857 11.875C17.4628 11.7934 17.3667 11.6775 17.3093 11.5416C17.2704 11.4493 17.2504 11.3502 17.2504 11.25C17.2504 11.1499 17.2704 11.0507 17.3093 10.9585C17.3667 10.8226 17.4628 10.7066 17.5857 10.6251C17.7086 10.5435 17.8528 10.5 18.0003 10.5C18.4211 10.5 18.8335 10.3819 19.1906 10.1593C19.5476 9.93662 19.8351 9.61828 20.0204 9.24043C20.2056 8.86257 20.2812 8.44034 20.2385 8.0217C20.1958 7.60305 20.0365 7.20477 19.7788 6.8721C19.5211 6.53942 19.1753 6.28569 18.7806 6.13972C18.3859 5.99374 17.9582 5.96138 17.546 6.04631C17.1338 6.13124 16.7538 6.33005 16.4489 6.62016C16.1441 6.91027 15.9267 7.28006 15.8215 7.68751C15.7969 7.78293 15.7537 7.87256 15.6945 7.95128C15.6352 8.03001 15.561 8.0963 15.4761 8.14635C15.3913 8.19641 15.2974 8.22926 15.1998 8.24302C15.1022 8.25679 15.0029 8.2512 14.9075 8.22658C14.8121 8.20195 14.7224 8.15878 14.6437 8.09952C14.565 8.04026 14.4987 7.96607 14.4486 7.88119C14.3986 7.79631 14.3657 7.7024 14.352 7.60483C14.3382 7.50726 14.3438 7.40793 14.3684 7.31251C14.5144 6.7475 14.7903 6.22436 15.1741 5.78472C15.5579 5.34508 16.039 5.00108 16.5791 4.78009C17.1192 4.5591 17.7034 4.46722 18.2853 4.51176C18.8672 4.5563 19.4307 4.73603 19.9309 5.03665C20.431 5.33727 20.8542 5.75048 21.1666 6.24341C21.479 6.73633 21.672 7.29536 21.7303 7.87602C21.7887 8.45668 21.7107 9.04294 21.5026 9.58815C21.2944 10.1334 20.9619 10.6225 20.5315 11.0166C21.5514 11.4581 22.4379 12.1588 23.1031 13.0491C23.1622 13.1281 23.2051 13.2179 23.2294 13.3136C23.2537 13.4092 23.2589 13.5086 23.2447 13.6062C23.2305 13.7039 23.1972 13.7977 23.1467 13.8825C23.0962 13.9672 23.0294 14.0411 22.9503 14.1ZM17.899 19.875C17.9533 19.9604 17.9897 20.0558 18.0062 20.1556C18.0226 20.2555 18.0186 20.3576 17.9946 20.4558C17.9705 20.5541 17.9268 20.6464 17.8661 20.7273C17.8054 20.8083 17.729 20.8761 17.6414 20.9267C17.5539 20.9773 17.4569 21.0097 17.3565 21.0219C17.2561 21.0341 17.1543 21.0259 17.0571 20.9977C16.96 20.9695 16.8695 20.9219 16.7912 20.8579C16.713 20.7939 16.6484 20.7146 16.6015 20.625C16.1291 19.825 15.4562 19.162 14.6493 18.7015C13.8424 18.2409 12.9294 17.9986 12.0003 17.9986C11.0712 17.9986 10.1582 18.2409 9.35126 18.7015C8.54436 19.162 7.87149 19.825 7.39903 20.625C7.35215 20.7146 7.28762 20.7939 7.20932 20.8579C7.13102 20.9219 7.04058 20.9695 6.94344 20.9977C6.84629 21.0259 6.74445 21.0341 6.64403 21.0219C6.54362 21.0097 6.44671 20.9773 6.35914 20.9267C6.27156 20.8761 6.19513 20.8083 6.13445 20.7273C6.07376 20.6464 6.03007 20.5541 6.00601 20.4558C5.98194 20.3576 5.978 20.2555 5.99441 20.1556C6.01083 20.0558 6.04727 19.9604 6.10153 19.875C6.82866 18.6257 7.93734 17.6425 9.26466 17.07C8.51778 16.4982 7.96887 15.7067 7.6951 14.8067C7.42132 13.9068 7.43644 12.9437 7.73833 12.0528C8.04022 11.1619 8.6137 10.388 9.37816 9.8399C10.1426 9.29178 11.0596 8.99701 12.0003 8.99701C12.9409 8.99701 13.8579 9.29178 14.6224 9.8399C15.3869 10.388 15.9603 11.1619 16.2622 12.0528C16.5641 12.9437 16.5792 13.9068 16.3055 14.8067C16.0317 15.7067 15.4828 16.4982 14.7359 17.07C16.0632 17.6425 17.1719 18.6257 17.899 19.875ZM12.0003 16.5C12.5936 16.5 13.1736 16.3241 13.667 15.9944C14.1603 15.6648 14.5449 15.1962 14.7719 14.6481C14.999 14.0999 15.0584 13.4967 14.9426 12.9147C14.8269 12.3328 14.5412 11.7983 14.1216 11.3787C13.702 10.9591 13.1675 10.6734 12.5856 10.5577C12.0036 10.4419 11.4004 10.5013 10.8522 10.7284C10.3041 10.9554 9.83552 11.34 9.50588 11.8333C9.17623 12.3267 9.00028 12.9067 9.00028 13.5C9.00028 14.2957 9.31635 15.0587 9.87896 15.6213C10.4416 16.1839 11.2046 16.5 12.0003 16.5ZM6.75028 11.25C6.75028 11.0511 6.67127 10.8603 6.53061 10.7197C6.38996 10.579 6.1992 10.5 6.00028 10.5C5.57947 10.5 5.16709 10.3819 4.81 10.1593C4.45292 9.93662 4.16543 9.61828 3.98019 9.24043C3.79495 8.86257 3.71939 8.44034 3.76209 8.0217C3.8048 7.60305 3.96405 7.20477 4.22176 6.8721C4.47947 6.53942 4.82531 6.28569 5.22 6.13972C5.61469 5.99374 6.04241 5.96138 6.45457 6.04631C6.86672 6.13124 7.2468 6.33005 7.55164 6.62016C7.85647 6.91027 8.07383 7.28006 8.17903 7.68751C8.22876 7.88021 8.353 8.04526 8.52442 8.14635C8.69584 8.24745 8.9004 8.2763 9.0931 8.22658C9.28579 8.17685 9.45084 8.05261 9.55194 7.88119C9.65303 7.70977 9.68189 7.50521 9.63216 7.31251C9.48614 6.7475 9.21026 6.22436 8.82648 5.78472C8.4427 5.34508 7.96161 5.00108 7.42149 4.78009C6.88137 4.5591 6.29712 4.46722 5.71524 4.51176C5.13336 4.5563 4.56991 4.73603 4.06972 5.03665C3.56952 5.33727 3.14639 5.75048 2.83399 6.24341C2.52159 6.73633 2.32855 7.29536 2.27022 7.87602C2.2119 8.45668 2.2899 9.04294 2.49801 9.58815C2.70613 10.1334 3.03862 10.6225 3.46903 11.0166C2.45024 11.4586 1.5647 12.1592 0.900284 13.0491C0.780813 13.2082 0.729448 13.4083 0.757491 13.6053C0.785533 13.8023 0.890686 13.9801 1.04982 14.0995C1.20895 14.219 1.40902 14.2704 1.60602 14.2423C1.80302 14.2143 1.98081 14.1091 2.10028 13.95C2.55233 13.3424 3.14073 12.8494 3.81812 12.5107C4.49551 12.172 5.24295 11.9971 6.00028 12C6.1992 12 6.38996 11.921 6.53061 11.7803C6.67127 11.6397 6.75028 11.4489 6.75028 11.25Z" fill="#0F0F1A"/>
</svg>
