<svg width="24" height="24" viewBox="0 0 24 24" fill="none" xmlns="http://www.w3.org/2000/svg">
<path d="M22.9503 14.1C22.8715 14.1591 22.7818 14.2021 22.6864 14.2265C22.591 14.251 22.4917 14.2564 22.3942 14.2424C22.2967 14.2285 22.2029 14.1955 22.1182 14.1453C22.0334 14.0952 21.9594 14.0288 21.9003 13.95C21.4482 13.3424 20.8598 12.8493 20.1824 12.5107C19.5051 12.172 18.7576 11.997 18.0003 12C17.8528 12 17.7086 11.9565 17.5857 11.8749C17.4628 11.7934 17.3667 11.6774 17.3093 11.5415C17.2704 11.4493 17.2504 11.3501 17.2504 11.25C17.2504 11.1498 17.2704 11.0507 17.3093 10.9584C17.3667 10.8225 17.4628 10.7066 17.5857 10.625C17.7086 10.5435 17.8528 10.5 18.0003 10.5C18.4211 10.4999 18.8335 10.3819 19.1906 10.1592C19.5476 9.93659 19.8351 9.61825 20.0204 9.2404C20.2056 8.86254 20.2812 8.44031 20.2385 8.02167C20.1958 7.60302 20.0365 7.20474 19.7788 6.87207C19.5211 6.53939 19.1753 6.28566 18.7806 6.13969C18.3859 5.99371 17.9582 5.96135 17.546 6.04628C17.1338 6.13121 16.7538 6.33002 16.4489 6.62013C16.1441 6.91024 15.9267 7.28003 15.8215 7.68748C15.7969 7.7829 15.7537 7.87253 15.6945 7.95125C15.6352 8.02998 15.561 8.09627 15.4761 8.14632C15.3913 8.19638 15.2974 8.22923 15.1998 8.24299C15.1022 8.25676 15.0029 8.25117 14.9075 8.22655C14.8121 8.20192 14.7224 8.15875 14.6437 8.09949C14.565 8.04023 14.4987 7.96604 14.4486 7.88116C14.3986 7.79628 14.3657 7.70237 14.352 7.6048C14.3382 7.50723 14.3438 7.4079 14.3684 7.31248C14.5144 6.74747 14.7903 6.22433 15.1741 5.78469C15.5579 5.34505 16.039 5.00105 16.5791 4.78006C17.1192 4.55907 17.7034 4.46719 18.2853 4.51173C18.8672 4.55627 19.4307 4.736 19.9309 5.03662C20.431 5.33724 20.8542 5.75045 21.1666 6.24338C21.479 6.7363 21.672 7.29533 21.7303 7.87599C21.7887 8.45665 21.7107 9.04291 21.5026 9.58812C21.2944 10.1333 20.9619 10.6224 20.5315 11.0165C21.5514 11.4581 22.4379 12.1588 23.1031 13.049C23.1622 13.128 23.2051 13.2179 23.2294 13.3135C23.2537 13.4091 23.2589 13.5086 23.2447 13.6062C23.2305 13.7038 23.1972 13.7977 23.1467 13.8824C23.0962 13.9672 23.0294 14.0411 22.9503 14.1ZM17.899 19.875C17.9533 19.9603 17.9897 20.0558 18.0062 20.1556C18.0226 20.2554 18.0186 20.3575 17.9946 20.4558C17.9705 20.554 17.9268 20.6464 17.8661 20.7273C17.8054 20.8082 17.729 20.876 17.6414 20.9267C17.5539 20.9773 17.4569 21.0097 17.3565 21.0219C17.2561 21.0341 17.1543 21.0258 17.0571 20.9976C16.96 20.9695 16.8695 20.9219 16.7912 20.8579C16.713 20.7938 16.6484 20.7146 16.6015 20.625C16.1291 19.825 15.4562 19.162 14.6493 18.7014C13.8424 18.2409 12.9294 17.9986 12.0003 17.9986C11.0712 17.9986 10.1582 18.2409 9.35126 18.7014C8.54436 19.162 7.87149 19.825 7.39903 20.625C7.35215 20.7146 7.28762 20.7938 7.20932 20.8579C7.13102 20.9219 7.04058 20.9695 6.94344 20.9976C6.84629 21.0258 6.74445 21.0341 6.64403 21.0219C6.54362 21.0097 6.44671 20.9773 6.35914 20.9267C6.27156 20.876 6.19513 20.8082 6.13445 20.7273C6.07376 20.6464 6.03007 20.554 6.00601 20.4558C5.98194 20.3575 5.978 20.2554 5.99441 20.1556C6.01083 20.0558 6.04727 19.9603 6.10153 19.875C6.82866 18.6257 7.93734 17.6425 9.26466 17.07C8.51778 16.4981 7.96887 15.7066 7.6951 14.8067C7.42132 13.9068 7.43644 12.9437 7.73833 12.0528C8.04022 11.1619 8.6137 10.388 9.37816 9.83987C10.1426 9.29175 11.0596 8.99698 12.0003 8.99698C12.9409 8.99698 13.8579 9.29175 14.6224 9.83987C15.3869 10.388 15.9603 11.1619 16.2622 12.0528C16.5641 12.9437 16.5792 13.9068 16.3055 14.8067C16.0317 15.7066 15.4828 16.4981 14.7359 17.07C16.0632 17.6425 17.1719 18.6257 17.899 19.875ZM12.0003 16.5C12.5936 16.5 13.1736 16.324 13.667 15.9944C14.1603 15.6647 14.5449 15.1962 14.7719 14.648C14.999 14.0999 15.0584 13.4967 14.9426 12.9147C14.8269 12.3328 14.5412 11.7982 14.1216 11.3787C13.702 10.9591 13.1675 10.6734 12.5856 10.5576C12.0036 10.4419 11.4004 10.5013 10.8522 10.7283C10.3041 10.9554 9.83552 11.3399 9.50588 11.8333C9.17623 12.3266 9.00028 12.9066 9.00028 13.5C9.00028 14.2956 9.31635 15.0587 9.87896 15.6213C10.4416 16.1839 11.2046 16.5 12.0003 16.5ZM6.75028 11.25C6.75028 11.0511 6.67127 10.8603 6.53061 10.7197C6.38996 10.579 6.1992 10.5 6.00028 10.5C5.57947 10.4999 5.16709 10.3819 4.81 10.1592C4.45292 9.93659 4.16543 9.61825 3.98019 9.2404C3.79495 8.86254 3.71939 8.44031 3.76209 8.02167C3.8048 7.60302 3.96405 7.20474 4.22176 6.87207C4.47947 6.53939 4.82531 6.28566 5.22 6.13969C5.61469 5.99371 6.04241 5.96135 6.45457 6.04628C6.86672 6.13121 7.2468 6.33002 7.55164 6.62013C7.85647 6.91024 8.07383 7.28003 8.17903 7.68748C8.22876 7.88018 8.353 8.04523 8.52442 8.14632C8.69584 8.24742 8.9004 8.27627 9.0931 8.22655C9.28579 8.17682 9.45084 8.05258 9.55194 7.88116C9.65303 7.70974 9.68189 7.50518 9.63216 7.31248C9.48614 6.74747 9.21026 6.22433 8.82648 5.78469C8.4427 5.34505 7.96161 5.00105 7.42149 4.78006C6.88137 4.55907 6.29712 4.46719 5.71524 4.51173C5.13336 4.55627 4.56991 4.736 4.06972 5.03662C3.56952 5.33724 3.14639 5.75045 2.83399 6.24338C2.52159 6.7363 2.32855 7.29533 2.27022 7.87599C2.2119 8.45665 2.2899 9.04291 2.49801 9.58812C2.70613 10.1333 3.03862 10.6224 3.46903 11.0165C2.45024 11.4585 1.5647 12.1592 0.900284 13.049C0.780813 13.2082 0.729448 13.4082 0.757491 13.6052C0.785533 13.8023 0.890686 13.98 1.04982 14.0995C1.20895 14.219 1.40902 14.2704 1.60602 14.2423C1.80302 14.2143 1.98081 14.1091 2.10028 13.95C2.55233 13.3424 3.14073 12.8493 3.81812 12.5107C4.49551 12.172 5.24295 11.997 6.00028 12C6.1992 12 6.38996 11.921 6.53061 11.7803C6.67127 11.6397 6.75028 11.4489 6.75028 11.25Z" fill="#F4F3FF"/>
</svg>
