<svg width="24" height="24" viewBox="0 0 24 24" fill="none" xmlns="http://www.w3.org/2000/svg">
<g clip-path="url(#clip0_641_497)">
<path d="M13.5006 14.7825C14.6763 14.0503 15.5815 12.955 16.0793 11.6624C16.5771 10.3698 16.6404 8.95031 16.2596 7.61858C15.8788 6.28684 15.0746 5.11537 13.9687 4.28138C12.8628 3.44739 11.5154 2.99628 10.1303 2.99628C8.74516 2.99628 7.39773 3.44739 6.29183 4.28138C5.18594 5.11537 4.38175 6.28684 4.00094 7.61858C3.62013 8.95031 3.68341 10.3698 4.18121 11.6624C4.67901 12.955 5.58424 14.0503 6.75996 14.7825C4.82402 15.4163 3.08214 16.6003 1.68152 18.2672C1.61589 18.3423 1.56589 18.4296 1.53443 18.5242C1.50296 18.6188 1.49067 18.7187 1.49828 18.8181C1.50588 18.9175 1.53323 19.0144 1.57872 19.1031C1.6242 19.1918 1.68692 19.2706 1.76319 19.3348C1.83947 19.399 1.92778 19.4473 2.02296 19.477C2.11813 19.5066 2.21827 19.517 2.3175 19.5075C2.41674 19.498 2.51309 19.4689 2.60092 19.4217C2.68875 19.3745 2.76629 19.3103 2.82902 19.2328C4.71152 16.9866 7.30464 15.75 10.1256 15.75C12.9465 15.75 15.5396 16.9866 17.4259 19.2328C17.5539 19.3853 17.7373 19.4806 17.9356 19.4978C18.1339 19.515 18.331 19.4528 18.4834 19.3247C18.6358 19.1967 18.7311 19.0133 18.7483 18.815C18.7656 18.6167 18.7033 18.4196 18.5753 18.2672C17.1737 16.6003 15.4318 15.4163 13.5006 14.7825ZM5.25058 9.37503C5.25058 8.41084 5.53649 7.46831 6.07217 6.66662C6.60784 5.86493 7.36921 5.24009 8.26 4.87111C9.15079 4.50214 10.131 4.40559 11.0766 4.5937C12.0223 4.7818 12.8909 5.2461 13.5727 5.92788C14.2545 6.60966 14.7188 7.4783 14.9069 8.42396C15.095 9.36962 14.9985 10.3498 14.6295 11.2406C14.2605 12.1314 13.6357 12.8928 12.834 13.4284C12.0323 13.9641 11.0898 14.25 10.1256 14.25C8.83311 14.2485 7.594 13.7344 6.68008 12.8205C5.76616 11.9066 5.25207 10.6675 5.25058 9.37503ZM23.649 13.4128L23.2121 13.1607C23.2634 12.8893 23.2634 12.6108 23.2121 12.3394L23.649 12.0872C23.7343 12.038 23.8091 11.9724 23.8691 11.8943C23.9291 11.8161 23.9731 11.7269 23.9986 11.6318C24.0241 11.5366 24.0306 11.4374 24.0178 11.3397C24.0049 11.242 23.973 11.1478 23.9237 11.0625C23.8745 10.9772 23.8089 10.9024 23.7307 10.8424C23.6526 10.7825 23.5634 10.7385 23.4683 10.713C23.3731 10.6875 23.2739 10.6809 23.1762 10.6938C23.0785 10.7066 22.9843 10.7386 22.899 10.7878L22.4612 11.041C22.2517 10.8612 22.0108 10.7217 21.7506 10.6294V10.125C21.7506 9.92611 21.6716 9.73535 21.5309 9.5947C21.3903 9.45404 21.1995 9.37503 21.0006 9.37503C20.8017 9.37503 20.6109 9.45404 20.4703 9.5947C20.3296 9.73535 20.2506 9.92611 20.2506 10.125V10.6294C19.9904 10.7217 19.7495 10.8612 19.54 11.041L19.1021 10.7878C19.0168 10.7386 18.9226 10.7066 18.825 10.6938C18.7273 10.6809 18.6281 10.6875 18.5329 10.713C18.4378 10.7385 18.3486 10.7825 18.2704 10.8424C18.1923 10.9024 18.1267 10.9772 18.0775 11.0625C18.0282 11.1478 17.9963 11.242 17.9834 11.3397C17.9706 11.4374 17.9771 11.5366 18.0026 11.6318C18.0281 11.7269 18.0721 11.8161 18.1321 11.8943C18.192 11.9724 18.2668 12.038 18.3521 12.0872L18.789 12.3394C18.7378 12.6108 18.7378 12.8893 18.789 13.1607L18.3521 13.4128C18.2668 13.4621 18.192 13.5277 18.1321 13.6058C18.0721 13.6839 18.0281 13.7731 18.0026 13.8683C17.9771 13.9634 17.9706 14.0627 17.9834 14.1604C17.9963 14.258 18.0282 14.3522 18.0775 14.4375C18.1267 14.5228 18.1923 14.5976 18.2704 14.6576C18.3486 14.7176 18.4378 14.7616 18.5329 14.7871C18.6281 14.8126 18.7273 14.8191 18.825 14.8063C18.9226 14.7934 19.0168 14.7615 19.1021 14.7122L19.54 14.4591C19.7495 14.6388 19.9904 14.7784 20.2506 14.8707V15.375C20.2506 15.5739 20.3296 15.7647 20.4703 15.9054C20.6109 16.046 20.8017 16.125 21.0006 16.125C21.1995 16.125 21.3903 16.046 21.5309 15.9054C21.6716 15.7647 21.7506 15.5739 21.7506 15.375V14.8707C22.0108 14.7784 22.2517 14.6388 22.4612 14.4591L22.899 14.7122C23.0129 14.7783 23.1423 14.8129 23.274 14.8125C23.4392 14.8126 23.5997 14.7581 23.7308 14.6576C23.8618 14.5571 23.956 14.4161 23.9988 14.2566C24.0415 14.0971 24.0304 13.9279 23.9672 13.7753C23.9039 13.6228 23.7921 13.4954 23.649 13.4128ZM20.2506 12.75C20.2506 12.6017 20.2946 12.4567 20.377 12.3333C20.4594 12.21 20.5765 12.1139 20.7136 12.0571C20.8506 12.0004 21.0014 11.9855 21.1469 12.0144C21.2924 12.0434 21.426 12.1148 21.5309 12.2197C21.6358 12.3246 21.7072 12.4582 21.7362 12.6037C21.7651 12.7492 21.7503 12.9 21.6935 13.037C21.6367 13.1741 21.5406 13.2912 21.4173 13.3736C21.2939 13.456 21.1489 13.5 21.0006 13.5C20.8017 13.5 20.6109 13.421 20.4703 13.2804C20.3296 13.1397 20.2506 12.9489 20.2506 12.75Z" fill="#0F0F1A"/>
</g>
<defs>
<clipPath id="clip0_641_497">
<rect width="24" height="24" fill="white"/>
</clipPath>
</defs>
</svg>
