<svg width="20" height="22" viewBox="0 0 20 22" fill="none" xmlns="http://www.w3.org/2000/svg">
<path d="M16.9394 3.04332C16.0422 2.13711 14.9751 1.41677 13.7991 0.923545C12.6232 0.430317 11.3615 0.17389 10.0863 0.168945H10.0122C7.42635 0.168945 4.9464 1.19617 3.11792 3.02465C1.28944 4.85313 0.262207 7.33308 0.262207 9.91895V15.1689C0.262207 15.7657 0.49926 16.338 0.921217 16.7599C1.34317 17.1819 1.91547 17.4189 2.51221 17.4189H4.01221C4.60894 17.4189 5.18124 17.1819 5.6032 16.7599C6.02515 16.338 6.26221 15.7657 6.26221 15.1689V11.4189C6.26221 10.8222 6.02515 10.2499 5.6032 9.82795C5.18124 9.406 4.60894 9.16895 4.01221 9.16895H1.79596C1.9406 7.60513 2.52799 6.11495 3.48929 4.87304C4.4506 3.63114 5.74598 2.68897 7.22361 2.15697C8.70125 1.62497 10.2999 1.52518 11.8322 1.8693C13.3646 2.21341 14.767 2.98717 15.8753 4.09988C17.2299 5.46141 18.0631 7.25557 18.2294 9.16895H16.0122C15.4155 9.16895 14.8432 9.406 14.4212 9.82795C13.9993 10.2499 13.7622 10.8222 13.7622 11.4189V15.1689C13.7622 15.7657 13.9993 16.338 14.4212 16.7599C14.8432 17.1819 15.4155 17.4189 16.0122 17.4189H18.2622C18.2622 18.0157 18.0252 18.588 17.6032 19.0099C17.1812 19.4319 16.6089 19.6689 16.0122 19.6689H10.7622C10.5633 19.6689 10.3725 19.748 10.2319 19.8886C10.0912 20.0293 10.0122 20.22 10.0122 20.4189C10.0122 20.6179 10.0912 20.8086 10.2319 20.9493C10.3725 21.0899 10.5633 21.1689 10.7622 21.1689H16.0122C17.0068 21.1689 17.9606 20.7739 18.6639 20.0706C19.3671 19.3673 19.7622 18.4135 19.7622 17.4189V9.91895C19.7671 8.64355 19.5203 7.37972 19.0359 6.19987C18.5515 5.02003 17.8391 3.94736 16.9394 3.04332ZM4.01221 10.6689C4.21112 10.6689 4.40189 10.748 4.54254 10.8886C4.68319 11.0293 4.76221 11.22 4.76221 11.4189V15.1689C4.76221 15.3679 4.68319 15.5586 4.54254 15.6993C4.40189 15.8399 4.21112 15.9189 4.01221 15.9189H2.51221C2.31329 15.9189 2.12253 15.8399 1.98188 15.6993C1.84122 15.5586 1.76221 15.3679 1.76221 15.1689V10.6689H4.01221ZM16.0122 15.9189C15.8133 15.9189 15.6225 15.8399 15.4819 15.6993C15.3412 15.5586 15.2622 15.3679 15.2622 15.1689V11.4189C15.2622 11.22 15.3412 11.0293 15.4819 10.8886C15.6225 10.748 15.8133 10.6689 16.0122 10.6689H18.2622V15.9189H16.0122Z" fill="white"/>
</svg>
