<svg width="19" height="20" viewBox="0 0 19 20" fill="none" xmlns="http://www.w3.org/2000/svg">
<path d="M5.6682 14.4501C5.74703 14.5093 5.83676 14.5525 5.93226 14.577C6.02776 14.6015 6.12716 14.607 6.22478 14.593C6.32239 14.5791 6.4163 14.546 6.50113 14.4958C6.58595 14.4455 6.66004 14.379 6.71914 14.3001C7.17323 13.6946 7.76205 13.2032 8.43897 12.8648C9.11589 12.5263 9.86232 12.3501 10.6191 12.3501C11.376 12.3501 12.1224 12.5263 12.7993 12.8648C13.4762 13.2032 14.065 13.6946 14.5191 14.3001C14.5782 14.3789 14.6523 14.4453 14.737 14.4955C14.8218 14.5456 14.9156 14.5786 15.0131 14.5926C15.1106 14.6065 15.2099 14.6011 15.3053 14.5766C15.4007 14.5522 15.4903 14.5092 15.5691 14.4501C15.6479 14.391 15.7143 14.317 15.7645 14.2322C15.8147 14.1475 15.8477 14.0537 15.8616 13.9562C15.8755 13.8587 15.8701 13.7594 15.8457 13.664C15.8212 13.5686 15.7782 13.4789 15.7191 13.4001C15.055 12.5097 14.1694 11.8087 13.1504 11.3667C13.7088 10.8568 14.1001 10.19 14.2728 9.45378C14.4455 8.71757 14.3917 7.94634 14.1182 7.2413C13.8448 6.53627 13.3646 5.93038 12.7406 5.50314C12.1167 5.0759 11.3782 4.84727 10.622 4.84727C9.86575 4.84727 9.12722 5.0759 8.50327 5.50314C7.87933 5.93038 7.39913 6.53627 7.12569 7.2413C6.85225 7.94634 6.79836 8.71757 6.97108 9.45378C7.1438 10.19 7.53506 10.8568 8.09352 11.3667C7.07242 11.8078 6.18481 12.5089 5.51914 13.4001C5.39969 13.5591 5.34829 13.7591 5.37625 13.956C5.4042 14.1529 5.50922 14.3306 5.6682 14.4501ZM8.36914 8.6001C8.36914 8.15509 8.5011 7.72008 8.74833 7.35006C8.99557 6.98005 9.34697 6.69167 9.7581 6.52137C10.1692 6.35107 10.6216 6.30651 11.0581 6.39333C11.4946 6.48015 11.8955 6.69444 12.2101 7.00911C12.5248 7.32378 12.7391 7.72469 12.8259 8.16114C12.9127 8.5976 12.8682 9.05 12.6979 9.46114C12.5276 9.87227 12.2392 10.2237 11.8692 10.4709C11.4992 10.7181 11.0641 10.8501 10.6191 10.8501C10.0224 10.8501 9.45011 10.613 9.02815 10.1911C8.60619 9.76913 8.36914 9.19683 8.36914 8.6001ZM17.3691 0.350098H3.86914C3.47132 0.350098 3.08978 0.508133 2.80848 0.789437C2.52718 1.07074 2.36914 1.45227 2.36914 1.8501V4.1001H0.869141C0.670228 4.1001 0.479463 4.17912 0.338811 4.31977C0.198158 4.46042 0.119141 4.65119 0.119141 4.8501C0.119141 5.04901 0.198158 5.23978 0.338811 5.38043C0.479463 5.52108 0.670228 5.6001 0.869141 5.6001H2.36914V9.3501H0.869141C0.670228 9.3501 0.479463 9.42912 0.338811 9.56977C0.198158 9.71042 0.119141 9.90119 0.119141 10.1001C0.119141 10.299 0.198158 10.4898 0.338811 10.6304C0.479463 10.7711 0.670228 10.8501 0.869141 10.8501H2.36914V14.6001H0.869141C0.670228 14.6001 0.479463 14.6791 0.338811 14.8198C0.198158 14.9604 0.119141 15.1512 0.119141 15.3501C0.119141 15.549 0.198158 15.7398 0.338811 15.8804C0.479463 16.0211 0.670228 16.1001 0.869141 16.1001H2.36914V18.3501C2.36914 18.7479 2.52718 19.1295 2.80848 19.4108C3.08978 19.6921 3.47132 19.8501 3.86914 19.8501H17.3691C17.767 19.8501 18.1485 19.6921 18.4298 19.4108C18.7111 19.1295 18.8691 18.7479 18.8691 18.3501V1.8501C18.8691 1.45227 18.7111 1.07074 18.4298 0.789437C18.1485 0.508133 17.767 0.350098 17.3691 0.350098ZM17.3691 18.3501H3.86914V1.8501H17.3691V18.3501Z" fill="white"/>
</svg>
