<svg width="24" height="17" viewBox="0 0 24 17" fill="none" xmlns="http://www.w3.org/2000/svg">
<path d="M12.752 11.9552C13.9278 11.2229 14.833 10.1276 15.3308 8.83508C15.8286 7.54251 15.8919 6.12298 15.5111 4.79125C15.1302 3.45951 14.3261 2.28804 13.2202 1.45405C12.1143 0.620063 10.7668 0.168945 9.38173 0.168945C7.99662 0.168945 6.64919 0.620063 5.5433 1.45405C4.4374 2.28804 3.63322 3.45951 3.2524 4.79125C2.87159 6.12298 2.93487 7.54251 3.43267 8.83508C3.93047 10.1276 4.8357 11.2229 6.01142 11.9552C4.07548 12.5889 2.33361 13.773 0.932983 15.4399C0.867358 15.5149 0.817352 15.6023 0.78589 15.6969C0.754427 15.7915 0.742139 15.8914 0.749744 15.9908C0.757349 16.0902 0.784694 16.1871 0.83018 16.2758C0.875667 16.3645 0.938382 16.4433 1.01466 16.5075C1.09094 16.5716 1.17924 16.62 1.27442 16.6496C1.3696 16.6793 1.46973 16.6897 1.56897 16.6802C1.66821 16.6707 1.76456 16.6415 1.85238 16.5944C1.94021 16.5472 2.01776 16.483 2.08048 16.4055C3.96298 14.1593 6.55611 12.9227 9.37705 12.9227C12.198 12.9227 14.7911 14.1593 16.6774 16.4055C16.8054 16.5579 16.9888 16.6532 17.1871 16.6705C17.3854 16.6877 17.5824 16.6254 17.7349 16.4974C17.8873 16.3693 17.9826 16.186 17.9998 15.9877C18.017 15.7893 17.9548 15.5923 17.8267 15.4399C16.4252 13.773 14.6833 12.5889 12.752 11.9552ZM4.50205 6.5477C4.50205 5.58351 4.78796 4.64098 5.32363 3.83929C5.8593 3.0376 6.62067 2.41276 7.51146 2.04378C8.40225 1.6748 9.38245 1.57826 10.3281 1.76637C11.2738 1.95447 12.1424 2.41877 12.8242 3.10055C13.506 3.78233 13.9703 4.65097 14.1584 5.59663C14.3465 6.54229 14.2499 7.52249 13.881 8.41328C13.512 9.30407 12.8871 10.0654 12.0854 10.6011C11.2838 11.1368 10.3412 11.4227 9.37705 11.4227C8.08457 11.4212 6.84546 10.9071 5.93154 9.9932C5.01763 9.07928 4.50353 7.84017 4.50205 6.5477ZM22.9005 10.5855L22.4636 10.3333C22.5149 10.062 22.5149 9.78342 22.4636 9.51207L22.9005 9.25988C22.9858 9.21064 23.0606 9.14507 23.1206 9.06692C23.1805 8.98877 23.2245 8.89958 23.25 8.80443C23.2756 8.70928 23.2821 8.61003 23.2692 8.51236C23.2564 8.4147 23.2244 8.32051 23.1752 8.2352C23.1259 8.14988 23.0604 8.07509 22.9822 8.01512C22.9041 7.95514 22.8149 7.91114 22.7197 7.88563C22.6246 7.86012 22.5253 7.85361 22.4277 7.86646C22.33 7.8793 22.2358 7.91126 22.1505 7.96051L21.7127 8.21363C21.5031 8.03387 21.2622 7.89435 21.002 7.80207V7.2977C21.002 7.09878 20.923 6.90802 20.7824 6.76737C20.6417 6.62671 20.451 6.5477 20.252 6.5477C20.0531 6.5477 19.8624 6.62671 19.7217 6.76737C19.5811 6.90802 19.502 7.09878 19.502 7.2977V7.80207C19.2419 7.89435 19.0009 8.03387 18.7914 8.21363L18.3536 7.96051C18.2683 7.91126 18.1741 7.8793 18.0764 7.86646C17.9788 7.85361 17.8795 7.86012 17.7844 7.88563C17.6892 7.91114 17.6 7.95514 17.5219 8.01512C17.4437 8.07509 17.3782 8.14988 17.3289 8.2352C17.2797 8.32051 17.2477 8.4147 17.2349 8.51236C17.222 8.61003 17.2285 8.70928 17.254 8.80443C17.2796 8.89958 17.3236 8.98877 17.3835 9.06692C17.4435 9.14507 17.5183 9.21064 17.6036 9.25988L18.0405 9.51207C17.9892 9.78342 17.9892 10.062 18.0405 10.3333L17.6036 10.5855C17.5183 10.6348 17.4435 10.7003 17.3835 10.7785C17.3236 10.8566 17.2796 10.9458 17.254 11.041C17.2285 11.1361 17.222 11.2354 17.2349 11.333C17.2477 11.4307 17.2797 11.5249 17.3289 11.6102C17.3782 11.6955 17.4437 11.7703 17.5219 11.8303C17.6 11.8903 17.6892 11.9343 17.7844 11.9598C17.8795 11.9853 17.9788 11.9918 18.0764 11.9789C18.1741 11.9661 18.2683 11.9341 18.3536 11.8849L18.7914 11.6318C19.0009 11.8115 19.2419 11.951 19.502 12.0433V12.5477C19.502 12.7466 19.5811 12.9374 19.7217 13.078C19.8624 13.2187 20.0531 13.2977 20.252 13.2977C20.451 13.2977 20.6417 13.2187 20.7824 13.078C20.923 12.9374 21.002 12.7466 21.002 12.5477V12.0433C21.2622 11.951 21.5031 11.8115 21.7127 11.6318L22.1505 11.8849C22.2644 11.951 22.3938 11.9856 22.5255 11.9852C22.6906 11.9853 22.8512 11.9308 22.9822 11.8303C23.1133 11.7298 23.2075 11.5888 23.2502 11.4293C23.293 11.2698 23.2819 11.1006 23.2186 10.948C23.1554 10.7954 23.0435 10.668 22.9005 10.5855ZM19.502 9.9227C19.502 9.77436 19.546 9.62935 19.6284 9.50602C19.7109 9.38268 19.828 9.28655 19.965 9.22979C20.1021 9.17302 20.2529 9.15817 20.3984 9.18711C20.5439 9.21605 20.6775 9.28748 20.7824 9.39236C20.8873 9.49725 20.9587 9.63089 20.9876 9.77638C21.0166 9.92186 21.0017 10.0727 20.945 10.2097C20.8882 10.3468 20.7921 10.4639 20.6687 10.5463C20.5454 10.6287 20.4004 10.6727 20.252 10.6727C20.0531 10.6727 19.8624 10.5937 19.7217 10.453C19.5811 10.3124 19.502 10.1216 19.502 9.9227Z" fill="white"/>
</svg>
