<svg width="23" height="19" viewBox="0 0 23 19" fill="none" xmlns="http://www.w3.org/2000/svg">
<path d="M21.8556 11.3245C21.5766 11.1097 21.2517 10.9623 20.9064 10.8935C20.561 10.8247 20.2045 10.8365 19.8644 10.9279L15.9419 11.8298C16.0332 11.4443 16.036 11.0431 15.9501 10.6564C15.8643 10.2696 15.692 9.9073 15.4463 9.5966C15.2005 9.28589 14.8876 9.03484 14.531 8.86226C14.1744 8.68968 13.7834 8.60006 13.3872 8.6001H8.69408C8.29996 8.59911 7.90954 8.67623 7.54539 8.82701C7.18125 8.97778 6.85059 9.19923 6.57252 9.47854L4.45189 11.6001H1.76221C1.36438 11.6001 0.982851 11.7581 0.701547 12.0394C0.420242 12.3207 0.262207 12.7023 0.262207 13.1001L0.262207 16.8501C0.262207 17.2479 0.420242 17.6295 0.701547 17.9108C0.982851 18.1921 1.36438 18.3501 1.76221 18.3501H11.5122C11.5735 18.3501 11.6346 18.3426 11.6941 18.3276L17.6941 16.8276C17.7323 16.8185 17.7697 16.8059 17.8056 16.7901L21.4497 15.2395L21.491 15.2207C21.8412 15.0457 22.1411 14.7844 22.3624 14.4615C22.5838 14.1386 22.7192 13.7646 22.7561 13.3748C22.7929 12.985 22.73 12.5923 22.5731 12.2336C22.4162 11.8749 22.1706 11.562 21.8594 11.3245H21.8556ZM1.76221 13.1001H4.01221V16.8501H1.76221V13.1001ZM20.8338 13.8698L17.2713 15.3867L11.4185 16.8501H5.51221V12.6604L7.63377 10.5398C7.77255 10.3999 7.93776 10.289 8.11979 10.2135C8.30181 10.138 8.49703 10.0995 8.69408 10.1001H13.3872C13.6856 10.1001 13.9717 10.2186 14.1827 10.4296C14.3937 10.6406 14.5122 10.9267 14.5122 11.2251C14.5122 11.5235 14.3937 11.8096 14.1827 12.0206C13.9717 12.2316 13.6856 12.3501 13.3872 12.3501H10.7622C10.5633 12.3501 10.3725 12.4291 10.2319 12.5698C10.0912 12.7104 10.0122 12.9012 10.0122 13.1001C10.0122 13.299 10.0912 13.4898 10.2319 13.6304C10.3725 13.7711 10.5633 13.8501 10.7622 13.8501H13.7622C13.8187 13.8499 13.8749 13.8437 13.93 13.8313L20.2113 12.3867L20.2403 12.3792C20.4321 12.3259 20.6367 12.3455 20.8149 12.4341C20.9931 12.5227 21.1323 12.674 21.2056 12.859C21.2789 13.044 21.2812 13.2496 21.212 13.4362C21.1428 13.6228 21.0071 13.7772 20.831 13.8698H20.8338ZM15.6372 7.1001C15.8225 7.10031 16.0075 7.08526 16.1903 7.0551C16.396 7.66592 16.7722 8.20509 17.2746 8.60886C17.7769 9.01263 18.3844 9.26411 19.0252 9.33358C19.6659 9.40305 20.3132 9.28759 20.8904 9.00086C21.4676 8.71414 21.9506 8.26813 22.2824 7.71557C22.6142 7.16301 22.7808 6.52701 22.7626 5.88275C22.7443 5.2385 22.542 4.61294 22.1795 4.08003C21.817 3.54712 21.3095 3.12915 20.717 2.87553C20.1245 2.62191 19.4718 2.54325 18.836 2.64885C18.6379 2.06033 18.2814 1.53784 17.8056 1.13889C17.3298 0.739937 16.7531 0.479982 16.1391 0.387633C15.5251 0.295285 14.8975 0.374123 14.3253 0.615472C13.7532 0.85682 13.2588 1.25132 12.8964 1.75557C12.5341 2.25981 12.3179 2.85424 12.2716 3.47345C12.2253 4.09266 12.3507 4.71264 12.634 5.26516C12.9174 5.81768 13.3476 6.28133 13.8775 6.60507C14.4074 6.92882 15.0163 7.10011 15.6372 7.1001ZM21.2622 5.9751C21.2622 6.34594 21.1522 6.70845 20.9462 7.01679C20.7402 7.32514 20.4474 7.56546 20.1047 7.70737C19.7621 7.84929 19.3851 7.88642 19.0214 7.81407C18.6577 7.74172 18.3236 7.56315 18.0614 7.30092C17.7992 7.0387 17.6206 6.70461 17.5482 6.34089C17.4759 5.97718 17.513 5.60018 17.6549 5.25757C17.7968 4.91496 18.0372 4.62212 18.3455 4.41609C18.6539 4.21007 19.0164 4.1001 19.3872 4.1001C19.8845 4.1001 20.3614 4.29764 20.713 4.64927C21.0647 5.0009 21.2622 5.47782 21.2622 5.9751ZM15.6372 1.8501C16.0462 1.8503 16.444 1.98426 16.7698 2.23155C17.0956 2.47883 17.3317 2.82588 17.4419 3.21979C17.0578 3.49006 16.7343 3.83754 16.4921 4.23999C16.25 4.64244 16.0945 5.091 16.0356 5.55697C15.9047 5.58525 15.7712 5.5997 15.6372 5.6001C15.1399 5.6001 14.663 5.40256 14.3114 5.05092C13.9598 4.69929 13.7622 4.22238 13.7622 3.7251C13.7622 3.22782 13.9598 2.7509 14.3114 2.39927C14.663 2.04764 15.1399 1.8501 15.6372 1.8501Z" fill="white"/>
</svg>
