<svg width="19" height="22" viewBox="0 0 19 22" fill="none" xmlns="http://www.w3.org/2000/svg">
<path d="M15.9239 15.5021C16.8723 14.7054 17.63 13.7061 18.1411 12.5779C18.6521 11.4496 18.9036 10.221 18.877 8.9827C18.7833 4.69739 15.3511 1.16395 11.0733 0.938952C9.96954 0.878875 8.86498 1.04122 7.8252 1.41634C6.78542 1.79146 5.83162 2.3717 5.02045 3.12262C4.20929 3.87353 3.5573 4.7798 3.1032 5.7876C2.6491 6.7954 2.40216 7.88417 2.37704 8.98926L0.272351 13.0374C0.263914 13.0543 0.255476 13.0711 0.247976 13.088C0.0970854 13.4397 0.0863311 13.8358 0.217915 14.1952C0.349499 14.5545 0.613469 14.85 0.955789 15.0211L0.979226 15.0315L3.12704 16.0149V18.9268C3.12704 19.3246 3.28507 19.7061 3.56638 19.9874C3.84768 20.2687 4.22921 20.4268 4.62704 20.4268H9.12704C9.32595 20.4268 9.51672 20.3477 9.65737 20.2071C9.79802 20.0664 9.87704 19.8757 9.87704 19.6768C9.87704 19.4779 9.79802 19.2871 9.65737 19.1464C9.51672 19.0058 9.32595 18.9268 9.12704 18.9268H4.62704V15.534C4.62715 15.3902 4.58594 15.2494 4.50832 15.1284C4.4307 15.0074 4.31994 14.9113 4.18923 14.8515L1.62704 13.6768L3.78985 9.51989C3.84622 9.41424 3.87614 9.29651 3.87704 9.17676C3.87682 7.64708 4.39618 6.16269 5.35002 4.96681C6.30386 3.77094 7.63561 2.93451 9.12704 2.59458V4.05614C8.62663 4.23306 8.20487 4.58119 7.93632 5.039C7.66776 5.49681 7.56969 6.03482 7.65944 6.55794C7.7492 7.08106 8.02099 7.55561 8.42679 7.89772C8.8326 8.23982 9.34627 8.42746 9.87704 8.42746C10.4078 8.42746 10.9215 8.23982 11.3273 7.89772C11.7331 7.55561 12.0049 7.08106 12.0946 6.55794C12.1844 6.03482 12.0863 5.49681 11.8178 5.039C11.5492 4.58119 11.1274 4.23306 10.627 4.05614V2.42676C10.7489 2.42676 10.8708 2.42676 10.9927 2.43614C12.3227 2.51232 13.6007 2.97896 14.6669 3.77769C15.7331 4.57642 16.5401 5.67178 16.987 6.92676H15.127C15.017 6.92672 14.9083 6.95089 14.8087 6.99755C14.709 7.04421 14.6209 7.11222 14.5505 7.19676L12.1589 10.0674C11.6601 9.88153 11.1117 9.87806 10.6106 10.0576C10.1095 10.2371 9.68804 10.588 9.42074 11.0483C9.15344 11.5086 9.05754 12.0486 9.14999 12.5728C9.24244 13.097 9.51729 13.5716 9.92593 13.9127C10.3346 14.2538 10.8507 14.4394 11.3829 14.4366C11.9152 14.4339 12.4294 14.243 12.8345 13.8977C13.2396 13.5525 13.5095 13.0751 13.5966 12.5499C13.6836 12.0248 13.5822 11.4859 13.3102 11.0283L15.4786 8.42676H17.3339C17.3564 8.62176 17.3702 8.81864 17.3752 9.01739C17.3985 10.0916 17.1661 11.156 16.6969 12.1226C16.2278 13.0893 15.5354 13.9305 14.677 14.5768C14.5713 14.6561 14.4883 14.7619 14.4366 14.8836C14.3849 15.0052 14.3663 15.1384 14.3827 15.2696L15.1327 21.2696C15.1555 21.4507 15.2436 21.6173 15.3804 21.7381C15.5173 21.8589 15.6935 21.9257 15.8761 21.9258C15.9074 21.9258 15.9387 21.9239 15.9699 21.9202C16.0676 21.908 16.162 21.8767 16.2477 21.8281C16.3333 21.7794 16.4086 21.7143 16.4691 21.6366C16.5296 21.5588 16.5742 21.4699 16.6003 21.375C16.6264 21.28 16.6336 21.1808 16.6214 21.083L15.9239 15.5021ZM9.87704 6.92676C9.7287 6.92676 9.5837 6.88278 9.46036 6.80037C9.33702 6.71796 9.24089 6.60082 9.18413 6.46378C9.12736 6.32673 9.11251 6.17593 9.14145 6.03045C9.17039 5.88496 9.24182 5.75132 9.34671 5.64643C9.4516 5.54154 9.58524 5.47011 9.73072 5.44118C9.87621 5.41224 10.027 5.42709 10.1641 5.48385C10.3011 5.54062 10.4182 5.63675 10.5006 5.76009C10.5831 5.88342 10.627 6.02843 10.627 6.17676C10.627 6.37568 10.548 6.56644 10.4074 6.70709C10.2667 6.84775 10.076 6.92676 9.87704 6.92676ZM11.377 12.9268C11.2287 12.9268 11.0837 12.8828 10.9604 12.8004C10.837 12.718 10.7409 12.6008 10.6841 12.4638C10.6274 12.3267 10.6125 12.1759 10.6414 12.0304C10.6704 11.885 10.7418 11.7513 10.8467 11.6464C10.9516 11.5415 11.0852 11.4701 11.2307 11.4412C11.3762 11.4122 11.527 11.4271 11.6641 11.4839C11.8011 11.5406 11.9182 11.6367 12.0006 11.7601C12.0831 11.8834 12.127 12.0284 12.127 12.1768C12.127 12.3757 12.048 12.5664 11.9074 12.7071C11.7667 12.8477 11.576 12.9268 11.377 12.9268Z" fill="white"/>
</svg>
