<svg width="24" height="18" viewBox="0 0 24 18" fill="none" xmlns="http://www.w3.org/2000/svg">
<path d="M22.8912 10.2003C22.8124 10.2594 22.7227 10.3024 22.6273 10.3268C22.5319 10.3512 22.4326 10.3567 22.3351 10.3427C22.2376 10.3288 22.1438 10.2958 22.0591 10.2456C21.9743 10.1954 21.9003 10.1291 21.8412 10.0503C21.3892 9.44263 20.8008 8.94963 20.1234 8.61094C19.446 8.27224 18.6985 8.09733 17.9412 8.10026C17.7937 8.10025 17.6495 8.05675 17.5266 7.97521C17.4037 7.89367 17.3076 7.77771 17.2503 7.64183C17.2113 7.54955 17.1913 7.45042 17.1913 7.35026C17.1913 7.25011 17.2113 7.15098 17.2503 7.0587C17.3076 6.92282 17.4037 6.80686 17.5266 6.72532C17.6495 6.64378 17.7937 6.60028 17.9412 6.60026C18.362 6.60023 18.7744 6.48218 19.1315 6.25952C19.4886 6.03687 19.7761 5.71853 19.9613 5.34068C20.1465 4.96282 20.2221 4.54059 20.1794 4.12195C20.1367 3.7033 19.9774 3.30502 19.7197 2.97235C19.462 2.63967 19.1162 2.38594 18.7215 2.23997C18.3268 2.09399 17.8991 2.06163 17.4869 2.14656C17.0748 2.23149 16.6947 2.4303 16.3899 2.72041C16.085 3.01052 15.8677 3.38031 15.7625 3.78776C15.7378 3.88318 15.6947 3.97281 15.6354 4.05154C15.5761 4.13026 15.5019 4.19655 15.4171 4.2466C15.3322 4.29666 15.2383 4.32951 15.1407 4.34327C15.0431 4.35704 14.9438 4.35145 14.8484 4.32683C14.753 4.3022 14.6633 4.25903 14.5846 4.19977C14.5059 4.14051 14.4396 4.06632 14.3895 3.98144C14.3395 3.89656 14.3066 3.80265 14.2929 3.70508C14.2791 3.60751 14.2847 3.50818 14.3093 3.41276C14.4553 2.84775 14.7312 2.32461 15.115 1.88497C15.4988 1.44533 15.9799 1.10133 16.52 0.880343C17.0601 0.659354 17.6444 0.567473 18.2262 0.612012C18.8081 0.656552 19.3716 0.836281 19.8718 1.1369C20.372 1.43752 20.7951 1.85073 21.1075 2.34366C21.4199 2.83658 21.6129 3.39561 21.6713 3.97627C21.7296 4.55693 21.6516 5.14319 21.4435 5.6884C21.2354 6.23361 20.9029 6.72273 20.4725 7.11683C21.4923 7.55839 22.3788 8.25909 23.044 9.14933C23.1031 9.22832 23.146 9.3182 23.1703 9.4138C23.1946 9.50941 23.1998 9.60888 23.1856 9.7065C23.1715 9.80412 23.1381 9.89799 23.0876 9.98271C23.0371 10.0674 22.9703 10.1414 22.8912 10.2003ZM17.84 15.9753C17.8942 16.0606 17.9307 16.1561 17.9471 16.2559C17.9635 16.3557 17.9595 16.4578 17.9355 16.5561C17.9114 16.6543 17.8677 16.7467 17.807 16.8276C17.7464 16.9085 17.6699 16.9763 17.5823 17.0269C17.4948 17.0776 17.3979 17.11 17.2975 17.1221C17.197 17.1343 17.0952 17.1261 16.998 17.0979C16.9009 17.0697 16.8105 17.0222 16.7322 16.9582C16.6539 16.8941 16.5893 16.8149 16.5425 16.7253C16.07 15.9253 15.3971 15.2623 14.5902 14.8017C13.7833 14.3411 12.8703 14.0989 11.9412 14.0989C11.0121 14.0989 10.0991 14.3411 9.29218 14.8017C8.48528 15.2623 7.81241 15.9253 7.33995 16.7253C7.29307 16.8149 7.22853 16.8941 7.15024 16.9582C7.07194 17.0222 6.9815 17.0697 6.88435 17.0979C6.78721 17.1261 6.68536 17.1343 6.58495 17.1221C6.48454 17.11 6.38763 17.0776 6.30006 17.0269C6.21248 16.9763 6.13605 16.9085 6.07537 16.8276C6.01468 16.7467 5.97099 16.6543 5.94692 16.5561C5.92286 16.4578 5.91892 16.3557 5.93533 16.2559C5.95175 16.1561 5.98819 16.0606 6.04245 15.9753C6.76958 14.7259 7.87826 13.7428 9.20558 13.1703C8.4587 12.5984 7.90979 11.8069 7.63601 10.907C7.36224 10.007 7.37736 9.04395 7.67925 8.15305C7.98114 7.26216 8.55462 6.48826 9.31908 5.94015C10.0835 5.39203 11.0005 5.09726 11.9412 5.09726C12.8819 5.09726 13.7989 5.39203 14.5633 5.94015C15.3278 6.48826 15.9013 7.26216 16.2032 8.15305C16.505 9.04395 16.5202 10.007 16.2464 10.907C15.9726 11.8069 15.4237 12.5984 14.6768 13.1703C16.0041 13.7428 17.1128 14.7259 17.84 15.9753ZM11.9412 12.6003C12.5345 12.6003 13.1146 12.4243 13.6079 12.0947C14.1013 11.765 14.4858 11.2965 14.7128 10.7483C14.9399 10.2001 14.9993 9.59694 14.8836 9.01499C14.7678 8.43305 14.4821 7.8985 14.0625 7.47894C13.643 7.05939 13.1084 6.77366 12.5265 6.65791C11.9445 6.54215 11.3413 6.60156 10.7932 6.82863C10.245 7.05569 9.77644 7.44021 9.44679 7.93355C9.11715 8.4269 8.9412 9.00692 8.9412 9.60026C8.9412 10.3959 9.25727 11.159 9.81988 11.7216C10.3825 12.2842 11.1456 12.6003 11.9412 12.6003ZM6.6912 7.35026C6.6912 7.15135 6.61218 6.96059 6.47153 6.81993C6.33088 6.67928 6.14011 6.60026 5.9412 6.60026C5.52038 6.60023 5.10801 6.48218 4.75092 6.25952C4.39383 6.03687 4.10634 5.71853 3.92111 5.34068C3.73587 4.96282 3.66031 4.54059 3.70301 4.12195C3.74572 3.7033 3.90497 3.30502 4.16268 2.97235C4.42039 2.63967 4.76623 2.38594 5.16092 2.23997C5.55561 2.09399 5.98332 2.06163 6.39548 2.14656C6.80764 2.23149 7.18772 2.4303 7.49255 2.72041C7.79739 3.01052 8.01475 3.38031 8.11995 3.78776C8.16968 3.98046 8.29392 4.14551 8.46534 4.2466C8.63676 4.3477 8.84132 4.37656 9.03401 4.32683C9.22671 4.2771 9.39176 4.15286 9.49285 3.98144C9.59395 3.81002 9.6228 3.60546 9.57308 3.41276C9.42706 2.84775 9.15118 2.32461 8.7674 1.88497C8.38362 1.44533 7.90253 1.10133 7.36241 0.880343C6.82229 0.659354 6.23804 0.567473 5.65616 0.612012C5.07428 0.656552 4.51083 0.836281 4.01063 1.1369C3.51044 1.43752 3.08731 1.85073 2.77491 2.34366C2.46251 2.83658 2.26947 3.39561 2.21114 3.97627C2.15281 4.55693 2.23081 5.14319 2.43893 5.6884C2.64705 6.23361 2.97954 6.72273 3.40995 7.11683C2.39116 7.5588 1.50562 8.25947 0.841202 9.14933C0.721731 9.30846 0.670366 9.50853 0.698409 9.70553C0.726451 9.90253 0.831604 10.0803 0.990734 10.1998C1.14986 10.3193 1.34994 10.3706 1.54694 10.3426C1.74394 10.3145 1.92173 10.2094 2.0412 10.0503C2.49325 9.44263 3.08165 8.94963 3.75904 8.61094C4.43642 8.27224 5.18387 8.09733 5.9412 8.10026C6.14011 8.10026 6.33088 8.02125 6.47153 7.88059C6.61218 7.73994 6.6912 7.54918 6.6912 7.35026Z" fill="white"/>
</svg>
