<svg width="30" height="30" viewBox="0 0 30 30" fill="none" xmlns="http://www.w3.org/2000/svg">
<rect x="0.5" y="0.5" width="29" height="29" rx="7.5" fill="#FAFAFB"/>
<rect x="0.5" y="0.5" width="29" height="29" rx="7.5" stroke="url(#paint0_linear_493_179)"/>
<path d="M23.1566 23.6109C23.092 23.7286 22.9971 23.8267 22.8817 23.8951C22.7662 23.9636 22.6346 23.9998 22.5004 24H18.0004C17.8741 24 17.75 23.9681 17.6393 23.9073C17.5287 23.8465 17.4352 23.7587 17.3676 23.6522L13.5716 17.6869L8.05536 23.7544C7.92089 23.8988 7.7349 23.9845 7.53772 23.9927C7.34054 24.0009 7.14805 23.9311 7.002 23.7984C6.85595 23.6657 6.7681 23.4807 6.7575 23.2836C6.74689 23.0866 6.81439 22.8933 6.94536 22.7456L12.7363 16.3706L6.86755 7.15313C6.79527 7.03973 6.75481 6.90898 6.7504 6.77458C6.746 6.64018 6.7778 6.50707 6.8425 6.38918C6.90719 6.27129 7.0024 6.17296 7.11813 6.10449C7.23387 6.03603 7.36589 5.99993 7.50036 6H12.0004C12.1266 6.00004 12.2508 6.03194 12.3614 6.09274C12.472 6.15353 12.5655 6.24127 12.6332 6.34781L16.4291 12.3131L21.9454 6.24562C22.0798 6.10117 22.2658 6.01555 22.463 6.00731C22.6602 5.99907 22.8527 6.06888 22.9987 6.20161C23.1448 6.33435 23.2326 6.51929 23.2432 6.71636C23.2538 6.91343 23.1863 7.10674 23.0554 7.25438L17.2644 13.6247L23.1332 22.8478C23.2051 22.9613 23.2451 23.0919 23.2493 23.2262C23.2534 23.3604 23.2214 23.4933 23.1566 23.6109Z" fill="#5F27CD"/>
<defs>
<linearGradient id="paint0_linear_493_179" x1="15" y1="-6.04901e-08" x2="15.0675" y2="24.7431" gradientUnits="userSpaceOnUse">
<stop stop-color="#5F27CD"/>
<stop offset="1" stop-color="#00CEC9"/>
</linearGradient>
</defs>
</svg>
